<svg width="3140" height="682" xmlns="http://www.w3.org/2000/svg" xmlns:xlink="http://www.w3.org/1999/xlink" xml:space="preserve" overflow="hidden"><defs><clipPath id="clip0"><rect x="579" y="1318" width="3140" height="682"/></clipPath></defs><g clip-path="url(#clip0)" transform="translate(-579 -1318)"><rect x="581.5" y="1320.5" width="2194" height="653" stroke="#000000" stroke-width="4.58333" stroke-miterlimit="8" fill="#DBDBDB"/><path d="M623.5 1435.5C623.5 1395.74 655.736 1363.5 695.501 1363.5L1643.5 1363.5C1683.26 1363.5 1715.5 1395.74 1715.5 1435.5L1715.5 1723.5C1715.5 1763.26 1683.26 1795.5 1643.5 1795.5L695.501 1795.5C655.736 1795.5 623.5 1763.26 623.5 1723.5Z" stroke="#000000" stroke-width="4.58333" stroke-miterlimit="8" fill="#D0DCF0" fill-rule="evenodd"/><path d="M960.5 1558C960.5 1508.02 1003.03 1467.5 1055.5 1467.5 1107.97 1467.5 1150.5 1508.02 1150.5 1558 1150.5 1607.98 1107.97 1648.5 1055.5 1648.5 1003.03 1648.5 960.5 1607.98 960.5 1558Z" stroke="#000000" stroke-width="4.58333" stroke-miterlimit="8" fill="#FFFFFF" fill-rule="evenodd"/><text font-family="Arial,Arial_MSFontService,sans-serif" font-weight="400" font-size="64" transform="matrix(1 0 0 1 992.521 1581)">T,p,t</text><text font-family="Arial,Arial_MSFontService,sans-serif" font-style="italic" font-weight="700" font-size="46" transform="matrix(1 0 0 1 992.521 1440)">Node</text><path d="M653.5 1558C653.5 1508.02 696.257 1467.5 749 1467.5 801.743 1467.5 844.5 1508.02 844.5 1558 844.5 1607.98 801.743 1648.5 749 1648.5 696.257 1648.5 653.5 1607.98 653.5 1558Z" stroke="#000000" stroke-width="4.58333" stroke-miterlimit="8" fill="#FFFFFF" fill-rule="evenodd"/><text font-family="Arial,Arial_MSFontService,sans-serif" font-weight="400" font-size="64" transform="matrix(1 0 0 1 685.896 1581)">T,p,t</text><text font-family="Arial,Arial_MSFontService,sans-serif" font-style="italic" font-weight="700" font-size="46" transform="matrix(1 0 0 1 688.417 1440)">Node</text><path d="M1461.5 1558C1461.5 1508.02 1504.26 1467.5 1557 1467.5 1609.74 1467.5 1652.5 1508.02 1652.5 1558 1652.5 1607.98 1609.74 1648.5 1557 1648.5 1504.26 1648.5 1461.5 1607.98 1461.5 1558Z" stroke="#000000" stroke-width="4.58333" stroke-miterlimit="8" fill="#FFFFFF" fill-rule="evenodd"/><text font-family="Arial,Arial_MSFontService,sans-serif" font-weight="400" font-size="64" transform="matrix(1 0 0 1 1494.85 1580)">T,p,t</text><text font-family="Arial,Arial_MSFontService,sans-serif" font-style="italic" font-weight="700" font-size="46" transform="matrix(1 0 0 1 1511.12 1449)">Node</text><path d="M845 1551.84 949.374 1551.84 949.374 1562.16 845 1562.16ZM921.035 1534.5 959.607 1557 921.034 1579.5C918.575 1580.94 915.417 1580.1 913.982 1577.65 912.548 1575.19 913.378 1572.03 915.838 1570.59L946.776 1552.55 946.776 1561.45 915.838 1543.41C913.379 1541.97 912.548 1538.81 913.983 1536.36 915.417 1533.9 918.575 1533.06 921.035 1534.5Z"/><path d="M1149 1572.84 1449.77 1573.07 1449.77 1583.38 1149 1583.16ZM1421.45 1555.7 1460 1578.23 1421.41 1600.7C1418.95 1602.13 1415.8 1601.3 1414.36 1598.84 1412.93 1596.38 1413.76 1593.22 1416.22 1591.79L1447.18 1573.77 1447.17 1582.67 1416.24 1564.6C1413.79 1563.17 1412.96 1560.01 1414.39 1557.55 1415.83 1555.09 1418.99 1554.26 1421.45 1555.7Z"/><text font-family="Arial,Arial_MSFontService,sans-serif" font-style="italic" font-weight="700" font-size="73" transform="matrix(1 0 0 1 1023.69 1761)">Chain</text><text font-family="Arial,Arial_MSFontService,sans-serif" font-style="italic" font-weight="700" font-size="73" transform="matrix(1 0 0 1 1227.07 1761)">-</text><text font-family="Arial,Arial_MSFontService,sans-serif" font-style="italic" font-weight="700" font-size="73" transform="matrix(1 0 0 1 1251.71 1761)">1</text><path d="M1918.5 1448C1918.5 1409.62 1949.62 1378.5 1988 1378.5L2666 1378.5C2704.38 1378.5 2735.5 1409.62 2735.5 1448L2735.5 1726C2735.5 1764.38 2704.38 1795.5 2666 1795.5L1988 1795.5C1949.62 1795.5 1918.5 1764.38 1918.5 1726Z" stroke="#000000" stroke-width="4.58333" stroke-miterlimit="8" fill="#D0DCF0" fill-rule="evenodd"/><path d="M2443.5 1567C2443.5 1517.02 2486.26 1476.5 2539 1476.5 2591.74 1476.5 2634.5 1517.02 2634.5 1567 2634.5 1616.98 2591.74 1657.5 2539 1657.5 2486.26 1657.5 2443.5 1616.98 2443.5 1567Z" stroke="#000000" stroke-width="4.58333" stroke-miterlimit="8" fill="#FFFFFF" fill-rule="evenodd"/><text font-family="Arial,Arial_MSFontService,sans-serif" font-weight="400" font-size="64" transform="matrix(1 0 0 1 2475.92 1581)">T,p,t</text><text font-family="Arial,Arial_MSFontService,sans-serif" font-style="italic" font-weight="700" font-size="46" transform="matrix(1 0 0 1 2494.71 1439)">Node</text><path d="M1947.5 1558C1947.5 1508.02 1990.26 1467.5 2043 1467.5 2095.74 1467.5 2138.5 1508.02 2138.5 1558 2138.5 1607.98 2095.74 1648.5 2043 1648.5 1990.26 1648.5 1947.5 1607.98 1947.5 1558Z" stroke="#000000" stroke-width="4.58333" stroke-miterlimit="8" fill="#FFFFFF" fill-rule="evenodd"/><text font-family="Arial,Arial_MSFontService,sans-serif" font-weight="400" font-size="64" transform="matrix(1 0 0 1 1980.23 1580)">T,p,t</text><text font-family="Arial,Arial_MSFontService,sans-serif" font-style="italic" font-weight="700" font-size="46" transform="matrix(1 0 0 1 1982.75 1440)">Node</text><path d="M2139.02 1584.84 2432.45 1585.73 2432.42 1596.04 2138.98 1595.16ZM2404.17 1568.3 2442.67 1590.92 2404.03 1613.3C2401.57 1614.73 2398.41 1613.89 2396.98 1611.42 2395.56 1608.96 2396.4 1605.8 2398.86 1604.38L2429.85 1586.42 2429.83 1595.33 2398.94 1577.19C2396.49 1575.75 2395.67 1572.59 2397.11 1570.13 2398.55 1567.68 2401.71 1566.86 2404.17 1568.3Z"/><text font-family="Arial,Arial_MSFontService,sans-serif" font-style="italic" font-weight="700" font-size="73" transform="matrix(1 0 0 1 2152.79 1761)">Chain</text><text font-family="Arial,Arial_MSFontService,sans-serif" font-style="italic" font-weight="700" font-size="73" transform="matrix(1 0 0 1 2356.18 1761)">-</text><text font-family="Arial,Arial_MSFontService,sans-serif" font-style="italic" font-weight="700" font-size="73" transform="matrix(1 0 0 1 2380.81 1761)">2</text><text font-family="Arial,Arial_MSFontService,sans-serif" font-style="italic" font-weight="700" font-size="73" transform="matrix(1 0 0 1 2666.81 1579)">...</text><path d="M1715 1580.84 1907.83 1580.84 1907.83 1591.16 1715 1591.16ZM1879.49 1563.5 1918.07 1586 1879.49 1608.5C1877.03 1609.94 1873.88 1609.11 1872.44 1606.65 1871.01 1604.19 1871.84 1601.03 1874.3 1599.59L1905.23 1581.55 1905.23 1590.45 1874.3 1572.41C1871.84 1570.97 1871.01 1567.82 1872.44 1565.36 1873.88 1562.9 1877.03 1562.06 1879.49 1563.5Z"/><text font-family="Arial,Arial_MSFontService,sans-serif" font-style="italic" font-weight="700" font-size="73" transform="matrix(1 0 0 1 1518 1939)">Subgame</text><text font-family="Arial,Arial_MSFontService,sans-serif" font-style="italic" font-weight="700" font-size="73" transform="matrix(1 0 0 1 1847.43 1939)">-</text><text font-family="Arial,Arial_MSFontService,sans-serif" font-style="italic" font-weight="700" font-size="73" transform="matrix(1 0 0 1 1872.06 1939)">1</text><path d="M2775.51 1636.19 3105.48 1636.4 3105.47 1657.03 2775.49 1656.81ZM3048.83 1601.68 3125.94 1646.73 3048.77 1691.68C3043.85 1694.55 3037.53 1692.88 3034.67 1687.96 3031.8 1683.04 3033.47 1676.72 3038.39 1673.86L3100.29 1637.8 3100.28 1655.62 3038.42 1619.49C3033.51 1616.61 3031.85 1610.3 3034.72 1605.38 3037.59 1600.46 3043.91 1598.8 3048.83 1601.68Z"/><path d="M1166.5 1460.38C1166.5 1431.73 1189.73 1408.5 1218.38 1408.5L1390.62 1408.5C1419.27 1408.5 1442.5 1431.73 1442.5 1460.38L1442.5 1495.62C1442.5 1524.27 1419.27 1547.5 1390.62 1547.5L1218.38 1547.5C1189.73 1547.5 1166.5 1524.27 1166.5 1495.62Z" stroke="#000000" stroke-width="4.58333" stroke-miterlimit="8" fill="#C5E0B4" fill-rule="evenodd"/><text font-family="Arial,Arial_MSFontService,sans-serif" font-style="italic" font-weight="400" font-size="55" transform="matrix(1 0 0 1 1197.34 1460)">Intercept </text><text font-family="Arial,Arial_MSFontService,sans-serif" font-style="italic" font-weight="400" font-size="55" transform="matrix(1 0 0 1 1237.17 1526)">event </text><path d="M2153.5 1477.38C2153.5 1448.73 2176.73 1425.5 2205.38 1425.5L2377.62 1425.5C2406.27 1425.5 2429.5 1448.73 2429.5 1477.38L2429.5 1512.62C2429.5 1541.27 2406.27 1564.5 2377.62 1564.5L2205.38 1564.5C2176.73 1564.5 2153.5 1541.27 2153.5 1512.62Z" stroke="#000000" stroke-width="4.58333" stroke-miterlimit="8" fill="#C5E0B4" fill-rule="evenodd"/><text font-family="Arial,Arial_MSFontService,sans-serif" font-style="italic" font-weight="400" font-size="55" transform="matrix(1 0 0 1 2229.95 1478)">Pass</text><text font-family="Arial,Arial_MSFontService,sans-serif" font-style="italic" font-weight="400" font-size="55" transform="matrix(1 0 0 1 2223.95 1544)">event </text><path d="M2813.5 1494.38C2813.5 1465.73 2836.73 1442.5 2865.38 1442.5L3036.62 1442.5C3065.27 1442.5 3088.5 1465.73 3088.5 1494.38L3088.5 1529.62C3088.5 1558.27 3065.27 1581.5 3036.62 1581.5L2865.38 1581.5C2836.73 1581.5 2813.5 1558.27 2813.5 1529.62Z" stroke="#000000" stroke-width="4.58333" stroke-miterlimit="8" fill="#C5E0B4" fill-rule="evenodd"/><text font-family="Arial,Arial_MSFontService,sans-serif" font-style="italic" font-weight="400" font-size="55" transform="matrix(1 0 0 1 2892.66 1495)">Goal</text><text font-family="Arial,Arial_MSFontService,sans-serif" font-style="italic" font-weight="400" font-size="55" transform="matrix(1 0 0 1 2883.49 1561)">event </text><rect x="3126.5" y="1320.5" width="455" height="653" stroke="#000000" stroke-width="4.58333" stroke-miterlimit="8" fill="#DBDBDB"/><text font-family="Arial,Arial_MSFontService,sans-serif" font-style="italic" font-weight="700" font-size="73" transform="matrix(1 0 0 1 3158.83 1939)">Subgame</text><text font-family="Arial,Arial_MSFontService,sans-serif" font-style="italic" font-weight="700" font-size="73" transform="matrix(1 0 0 1 3488.26 1939)">-</text><text font-family="Arial,Arial_MSFontService,sans-serif" font-style="italic" font-weight="700" font-size="73" transform="matrix(1 0 0 1 3512.9 1939)">2</text><text font-family="Arial,Arial_MSFontService,sans-serif" font-style="italic" font-weight="700" font-size="73" transform="matrix(1 0 0 1 3268.6 1673)">...</text></g></svg>