<svg width="3968" height="2285" xmlns="http://www.w3.org/2000/svg" xmlns:xlink="http://www.w3.org/1999/xlink" xml:space="preserve" overflow="hidden"><defs><filter id="fx0" x="-10%" y="-10%" width="120%" height="120%" filterUnits="userSpaceOnUse" primitiveUnits="userSpaceOnUse"><feComponentTransfer color-interpolation-filters="sRGB"><feFuncR type="discrete" tableValues="1 1"/><feFuncG type="discrete" tableValues="0.733333 0.733333"/><feFuncB type="discrete" tableValues="0.694118 0.694118"/><feFuncA type="linear" slope="1" intercept="0"/></feComponentTransfer><feGaussianBlur stdDeviation="6.11111 6.11111"/></filter><filter id="fx1" x="-10%" y="-10%" width="120%" height="120%" filterUnits="userSpaceOnUse" primitiveUnits="userSpaceOnUse"><feComponentTransfer color-interpolation-filters="sRGB"><feFuncR type="discrete" tableValues="1 1"/><feFuncG type="discrete" tableValues="0.733333 0.733333"/><feFuncB type="discrete" tableValues="0.694118 0.694118"/><feFuncA type="linear" slope="1" intercept="0"/></feComponentTransfer><feGaussianBlur stdDeviation="6.11111 6.11111"/></filter><filter id="fx2" x="-10%" y="-10%" width="120%" height="120%" filterUnits="userSpaceOnUse" primitiveUnits="userSpaceOnUse"><feComponentTransfer color-interpolation-filters="sRGB"><feFuncR type="discrete" tableValues="1 1"/><feFuncG type="discrete" tableValues="0.733333 0.733333"/><feFuncB type="discrete" tableValues="0.694118 0.694118"/><feFuncA type="linear" slope="1" intercept="0"/></feComponentTransfer><feGaussianBlur stdDeviation="6.11111 6.11111"/></filter><filter id="fx3" x="-10%" y="-10%" width="120%" height="120%" filterUnits="userSpaceOnUse" primitiveUnits="userSpaceOnUse"><feComponentTransfer color-interpolation-filters="sRGB"><feFuncR type="discrete" tableValues="1 1"/><feFuncG type="discrete" tableValues="0.733333 0.733333"/><feFuncB type="discrete" tableValues="0.694118 0.694118"/><feFuncA type="linear" slope="1" intercept="0"/></feComponentTransfer><feGaussianBlur stdDeviation="6.11111 6.11111"/></filter><filter id="fx4" x="-10%" y="-10%" width="120%" height="120%" filterUnits="userSpaceOnUse" primitiveUnits="userSpaceOnUse"><feComponentTransfer color-interpolation-filters="sRGB"><feFuncR type="discrete" tableValues="1 1"/><feFuncG type="discrete" tableValues="0.733333 0.733333"/><feFuncB type="discrete" tableValues="0.694118 0.694118"/><feFuncA type="linear" slope="1" intercept="0"/></feComponentTransfer><feGaussianBlur stdDeviation="6.11111 6.11111"/></filter><filter id="fx5" x="-10%" y="-10%" width="120%" height="120%" filterUnits="userSpaceOnUse" primitiveUnits="userSpaceOnUse"><feComponentTransfer color-interpolation-filters="sRGB"><feFuncR type="discrete" tableValues="1 1"/><feFuncG type="discrete" tableValues="0.733333 0.733333"/><feFuncB type="discrete" tableValues="0.694118 0.694118"/><feFuncA type="linear" slope="1" intercept="0"/></feComponentTransfer><feGaussianBlur stdDeviation="6.11111 6.11111"/></filter><filter id="fx6" x="-10%" y="-10%" width="120%" height="120%" filterUnits="userSpaceOnUse" primitiveUnits="userSpaceOnUse"><feComponentTransfer color-interpolation-filters="sRGB"><feFuncR type="discrete" tableValues="1 1"/><feFuncG type="discrete" tableValues="0.733333 0.733333"/><feFuncB type="discrete" tableValues="0.694118 0.694118"/><feFuncA type="linear" slope="1" intercept="0"/></feComponentTransfer><feGaussianBlur stdDeviation="6.11111 6.11111"/></filter><filter id="fx7" x="-10%" y="-10%" width="120%" height="120%" filterUnits="userSpaceOnUse" primitiveUnits="userSpaceOnUse"><feComponentTransfer color-interpolation-filters="sRGB"><feFuncR type="discrete" tableValues="1 1"/><feFuncG type="discrete" tableValues="0.733333 0.733333"/><feFuncB type="discrete" tableValues="0.694118 0.694118"/><feFuncA type="linear" slope="1" intercept="0"/></feComponentTransfer><feGaussianBlur stdDeviation="6.11111 6.11111"/></filter><filter id="fx8" x="-10%" y="-10%" width="120%" height="120%" filterUnits="userSpaceOnUse" primitiveUnits="userSpaceOnUse"><feComponentTransfer color-interpolation-filters="sRGB"><feFuncR type="discrete" tableValues="1 1"/><feFuncG type="discrete" tableValues="0.733333 0.733333"/><feFuncB type="discrete" tableValues="0.694118 0.694118"/><feFuncA type="linear" slope="1" intercept="0"/></feComponentTransfer><feGaussianBlur stdDeviation="6.11111 6.11111"/></filter><filter id="fx9" x="-10%" y="-10%" width="120%" height="120%" filterUnits="userSpaceOnUse" primitiveUnits="userSpaceOnUse"><feComponentTransfer color-interpolation-filters="sRGB"><feFuncR type="discrete" tableValues="0 0"/><feFuncG type="discrete" tableValues="0 0"/><feFuncB type="discrete" tableValues="0 0"/><feFuncA type="linear" slope="1" intercept="0"/></feComponentTransfer><feGaussianBlur stdDeviation="6.11111 6.11111"/></filter><filter id="fx10" x="-10%" y="-10%" width="120%" height="120%" filterUnits="userSpaceOnUse" primitiveUnits="userSpaceOnUse"><feComponentTransfer color-interpolation-filters="sRGB"><feFuncR type="discrete" tableValues="0 0"/><feFuncG type="discrete" tableValues="0 0"/><feFuncB type="discrete" tableValues="0 0"/><feFuncA type="linear" slope="1" intercept="0"/></feComponentTransfer><feGaussianBlur stdDeviation="6.11111 6.11111"/></filter><filter id="fx11" x="-10%" y="-10%" width="120%" height="120%" filterUnits="userSpaceOnUse" primitiveUnits="userSpaceOnUse"><feComponentTransfer color-interpolation-filters="sRGB"><feFuncR type="discrete" tableValues="0 0"/><feFuncG type="discrete" tableValues="0 0"/><feFuncB type="discrete" tableValues="0 0"/><feFuncA type="linear" slope="1" intercept="0"/></feComponentTransfer><feGaussianBlur stdDeviation="6.11111 6.11111"/></filter><filter id="fx12" x="-10%" y="-10%" width="120%" height="120%" filterUnits="userSpaceOnUse" primitiveUnits="userSpaceOnUse"><feComponentTransfer color-interpolation-filters="sRGB"><feFuncR type="discrete" tableValues="0 0"/><feFuncG type="discrete" tableValues="0 0"/><feFuncB type="discrete" tableValues="0 0"/><feFuncA type="linear" slope="1" intercept="0"/></feComponentTransfer><feGaussianBlur stdDeviation="6.11111 6.11111"/></filter><filter id="fx13" x="-10%" y="-10%" width="120%" height="120%" filterUnits="userSpaceOnUse" primitiveUnits="userSpaceOnUse"><feComponentTransfer color-interpolation-filters="sRGB"><feFuncR type="discrete" tableValues="0 0"/><feFuncG type="discrete" tableValues="0 0"/><feFuncB type="discrete" tableValues="0 0"/><feFuncA type="linear" slope="1" intercept="0"/></feComponentTransfer><feGaussianBlur stdDeviation="6.11111 6.11111"/></filter><filter id="fx14" x="-10%" y="-10%" width="120%" height="120%" filterUnits="userSpaceOnUse" primitiveUnits="userSpaceOnUse"><feComponentTransfer color-interpolation-filters="sRGB"><feFuncR type="discrete" tableValues="0 0"/><feFuncG type="discrete" tableValues="0 0"/><feFuncB type="discrete" tableValues="0 0"/><feFuncA type="linear" slope="1" intercept="0"/></feComponentTransfer><feGaussianBlur stdDeviation="6.11111 6.11111"/></filter><filter id="fx15" x="-10%" y="-10%" width="120%" height="120%" filterUnits="userSpaceOnUse" primitiveUnits="userSpaceOnUse"><feComponentTransfer color-interpolation-filters="sRGB"><feFuncR type="discrete" tableValues="0 0"/><feFuncG type="discrete" tableValues="0 0"/><feFuncB type="discrete" tableValues="0 0"/><feFuncA type="linear" slope="1" intercept="0"/></feComponentTransfer><feGaussianBlur stdDeviation="6.11111 6.11111"/></filter><filter id="fx16" x="-10%" y="-10%" width="120%" height="120%" filterUnits="userSpaceOnUse" primitiveUnits="userSpaceOnUse"><feComponentTransfer color-interpolation-filters="sRGB"><feFuncR type="discrete" tableValues="0 0"/><feFuncG type="discrete" tableValues="0 0"/><feFuncB type="discrete" tableValues="0 0"/><feFuncA type="linear" slope="1" intercept="0"/></feComponentTransfer><feGaussianBlur stdDeviation="6.11111 6.11111"/></filter><filter id="fx17" x="-10%" y="-10%" width="120%" height="120%" filterUnits="userSpaceOnUse" primitiveUnits="userSpaceOnUse"><feComponentTransfer color-interpolation-filters="sRGB"><feFuncR type="discrete" tableValues="0 0"/><feFuncG type="discrete" tableValues="0 0"/><feFuncB type="discrete" tableValues="0 0"/><feFuncA type="linear" slope="1" intercept="0"/></feComponentTransfer><feGaussianBlur stdDeviation="6.11111 6.11111"/></filter><filter id="fx18" x="-10%" y="-10%" width="120%" height="120%" filterUnits="userSpaceOnUse" primitiveUnits="userSpaceOnUse"><feComponentTransfer color-interpolation-filters="sRGB"><feFuncR type="discrete" tableValues="0 0"/><feFuncG type="discrete" tableValues="0 0"/><feFuncB type="discrete" tableValues="0 0"/><feFuncA type="linear" slope="1" intercept="0"/></feComponentTransfer><feGaussianBlur stdDeviation="6.11111 6.11111"/></filter><filter id="fx19" x="-10%" y="-10%" width="120%" height="120%" filterUnits="userSpaceOnUse" primitiveUnits="userSpaceOnUse"><feComponentTransfer color-interpolation-filters="sRGB"><feFuncR type="discrete" tableValues="0 0"/><feFuncG type="discrete" tableValues="0 0"/><feFuncB type="discrete" tableValues="0 0"/><feFuncA type="linear" slope="1" intercept="0"/></feComponentTransfer><feGaussianBlur stdDeviation="6.11111 6.11111"/></filter><filter id="fx20" x="-10%" y="-10%" width="120%" height="120%" filterUnits="userSpaceOnUse" primitiveUnits="userSpaceOnUse"><feComponentTransfer color-interpolation-filters="sRGB"><feFuncR type="discrete" tableValues="0 0"/><feFuncG type="discrete" tableValues="0 0"/><feFuncB type="discrete" tableValues="0 0"/><feFuncA type="linear" slope="1" intercept="0"/></feComponentTransfer><feGaussianBlur stdDeviation="6.11111 6.11111"/></filter><filter id="fx21" x="-10%" y="-10%" width="120%" height="120%" filterUnits="userSpaceOnUse" primitiveUnits="userSpaceOnUse"><feComponentTransfer color-interpolation-filters="sRGB"><feFuncR type="discrete" tableValues="0 0"/><feFuncG type="discrete" tableValues="0 0"/><feFuncB type="discrete" tableValues="0 0"/><feFuncA type="linear" slope="1" intercept="0"/></feComponentTransfer><feGaussianBlur stdDeviation="6.11111 6.11111"/></filter><filter id="fx22" x="-10%" y="-10%" width="120%" height="120%" filterUnits="userSpaceOnUse" primitiveUnits="userSpaceOnUse"><feComponentTransfer color-interpolation-filters="sRGB"><feFuncR type="discrete" tableValues="0 0"/><feFuncG type="discrete" tableValues="0 0"/><feFuncB type="discrete" tableValues="0 0"/><feFuncA type="linear" slope="1" intercept="0"/></feComponentTransfer><feGaussianBlur stdDeviation="6.11111 6.11111"/></filter><filter id="fx23" x="-10%" y="-10%" width="120%" height="120%" filterUnits="userSpaceOnUse" primitiveUnits="userSpaceOnUse"><feComponentTransfer color-interpolation-filters="sRGB"><feFuncR type="discrete" tableValues="0 0"/><feFuncG type="discrete" tableValues="0 0"/><feFuncB type="discrete" tableValues="0 0"/><feFuncA type="linear" slope="1" intercept="0"/></feComponentTransfer><feGaussianBlur stdDeviation="6.11111 6.11111"/></filter><filter id="fx24" x="-10%" y="-10%" width="120%" height="120%" filterUnits="userSpaceOnUse" primitiveUnits="userSpaceOnUse"><feComponentTransfer color-interpolation-filters="sRGB"><feFuncR type="discrete" tableValues="0 0"/><feFuncG type="discrete" tableValues="0 0"/><feFuncB type="discrete" tableValues="0 0"/><feFuncA type="linear" slope="1" intercept="0"/></feComponentTransfer><feGaussianBlur stdDeviation="6.11111 6.11111"/></filter><filter id="fx25" x="-10%" y="-10%" width="120%" height="120%" filterUnits="userSpaceOnUse" primitiveUnits="userSpaceOnUse"><feComponentTransfer color-interpolation-filters="sRGB"><feFuncR type="discrete" tableValues="0 0"/><feFuncG type="discrete" tableValues="0 0"/><feFuncB type="discrete" tableValues="0 0"/><feFuncA type="linear" slope="1" intercept="0"/></feComponentTransfer><feGaussianBlur stdDeviation="6.11111 6.11111"/></filter><filter id="fx26" x="-10%" y="-10%" width="120%" height="120%" filterUnits="userSpaceOnUse" primitiveUnits="userSpaceOnUse"><feComponentTransfer color-interpolation-filters="sRGB"><feFuncR type="discrete" tableValues="0 0"/><feFuncG type="discrete" tableValues="0 0"/><feFuncB type="discrete" tableValues="0 0"/><feFuncA type="linear" slope="1" intercept="0"/></feComponentTransfer><feGaussianBlur stdDeviation="6.11111 6.11111"/></filter><filter id="fx27" x="-10%" y="-10%" width="120%" height="120%" filterUnits="userSpaceOnUse" primitiveUnits="userSpaceOnUse"><feComponentTransfer color-interpolation-filters="sRGB"><feFuncR type="discrete" tableValues="0 0"/><feFuncG type="discrete" tableValues="0 0"/><feFuncB type="discrete" tableValues="0 0"/><feFuncA type="linear" slope="1" intercept="0"/></feComponentTransfer><feGaussianBlur stdDeviation="6.11111 6.11111"/></filter><filter id="fx28" x="-10%" y="-10%" width="120%" height="120%" filterUnits="userSpaceOnUse" primitiveUnits="userSpaceOnUse"><feComponentTransfer color-interpolation-filters="sRGB"><feFuncR type="discrete" tableValues="0 0"/><feFuncG type="discrete" tableValues="0 0"/><feFuncB type="discrete" tableValues="0 0"/><feFuncA type="linear" slope="1" intercept="0"/></feComponentTransfer><feGaussianBlur stdDeviation="6.11111 6.11111"/></filter><filter id="fx29" x="-10%" y="-10%" width="120%" height="120%" filterUnits="userSpaceOnUse" primitiveUnits="userSpaceOnUse"><feComponentTransfer color-interpolation-filters="sRGB"><feFuncR type="discrete" tableValues="0 0"/><feFuncG type="discrete" tableValues="0 0"/><feFuncB type="discrete" tableValues="0 0"/><feFuncA type="linear" slope="1" intercept="0"/></feComponentTransfer><feGaussianBlur stdDeviation="6.11111 6.11111"/></filter><filter id="fx30" x="-10%" y="-10%" width="120%" height="120%" filterUnits="userSpaceOnUse" primitiveUnits="userSpaceOnUse"><feComponentTransfer color-interpolation-filters="sRGB"><feFuncR type="discrete" tableValues="0 0"/><feFuncG type="discrete" tableValues="0 0"/><feFuncB type="discrete" tableValues="0 0"/><feFuncA type="linear" slope="1" intercept="0"/></feComponentTransfer><feGaussianBlur stdDeviation="6.11111 6.11111"/></filter><filter id="fx31" x="-10%" y="-10%" width="120%" height="120%" filterUnits="userSpaceOnUse" primitiveUnits="userSpaceOnUse"><feComponentTransfer color-interpolation-filters="sRGB"><feFuncR type="discrete" tableValues="0 0"/><feFuncG type="discrete" tableValues="0 0"/><feFuncB type="discrete" tableValues="0 0"/><feFuncA type="linear" slope="1" intercept="0"/></feComponentTransfer><feGaussianBlur stdDeviation="6.11111 6.11111"/></filter><filter id="fx32" x="-10%" y="-10%" width="120%" height="120%" filterUnits="userSpaceOnUse" primitiveUnits="userSpaceOnUse"><feComponentTransfer color-interpolation-filters="sRGB"><feFuncR type="discrete" tableValues="0 0"/><feFuncG type="discrete" tableValues="0 0"/><feFuncB type="discrete" tableValues="0 0"/><feFuncA type="linear" slope="1" intercept="0"/></feComponentTransfer><feGaussianBlur stdDeviation="6.11111 6.11111"/></filter><filter id="fx33" x="-10%" y="-10%" width="120%" height="120%" filterUnits="userSpaceOnUse" primitiveUnits="userSpaceOnUse"><feComponentTransfer color-interpolation-filters="sRGB"><feFuncR type="discrete" tableValues="0 0"/><feFuncG type="discrete" tableValues="0 0"/><feFuncB type="discrete" tableValues="0 0"/><feFuncA type="linear" slope="1" intercept="0"/></feComponentTransfer><feGaussianBlur stdDeviation="6.11111 6.11111"/></filter><filter id="fx34" x="-10%" y="-10%" width="120%" height="120%" filterUnits="userSpaceOnUse" primitiveUnits="userSpaceOnUse"><feComponentTransfer color-interpolation-filters="sRGB"><feFuncR type="discrete" tableValues="0 0"/><feFuncG type="discrete" tableValues="0 0"/><feFuncB type="discrete" tableValues="0 0"/><feFuncA type="linear" slope="1" intercept="0"/></feComponentTransfer><feGaussianBlur stdDeviation="6.11111 6.11111"/></filter><filter id="fx35" x="-10%" y="-10%" width="120%" height="120%" filterUnits="userSpaceOnUse" primitiveUnits="userSpaceOnUse"><feComponentTransfer color-interpolation-filters="sRGB"><feFuncR type="discrete" tableValues="1 1"/><feFuncG type="discrete" tableValues="0.733333 0.733333"/><feFuncB type="discrete" tableValues="0.694118 0.694118"/><feFuncA type="linear" slope="1" intercept="0"/></feComponentTransfer><feGaussianBlur stdDeviation="6.11111 6.11111"/></filter><filter id="fx36" x="-10%" y="-10%" width="120%" height="120%" filterUnits="userSpaceOnUse" primitiveUnits="userSpaceOnUse"><feComponentTransfer color-interpolation-filters="sRGB"><feFuncR type="discrete" tableValues="0 0"/><feFuncG type="discrete" tableValues="0 0"/><feFuncB type="discrete" tableValues="0 0"/><feFuncA type="linear" slope="1" intercept="0"/></feComponentTransfer><feGaussianBlur stdDeviation="6.11111 6.11111"/></filter><filter id="fx37" x="-10%" y="-10%" width="120%" height="120%" filterUnits="userSpaceOnUse" primitiveUnits="userSpaceOnUse"><feComponentTransfer color-interpolation-filters="sRGB"><feFuncR type="discrete" tableValues="1 1"/><feFuncG type="discrete" tableValues="0.733333 0.733333"/><feFuncB type="discrete" tableValues="0.694118 0.694118"/><feFuncA type="linear" slope="1" intercept="0"/></feComponentTransfer><feGaussianBlur stdDeviation="6.11111 6.11111"/></filter><filter id="fx38" x="-10%" y="-10%" width="120%" height="120%" filterUnits="userSpaceOnUse" primitiveUnits="userSpaceOnUse"><feComponentTransfer color-interpolation-filters="sRGB"><feFuncR type="discrete" tableValues="1 1"/><feFuncG type="discrete" tableValues="0.733333 0.733333"/><feFuncB type="discrete" tableValues="0.694118 0.694118"/><feFuncA type="linear" slope="1" intercept="0"/></feComponentTransfer><feGaussianBlur stdDeviation="6.11111 6.11111"/></filter><filter id="fx39" x="-10%" y="-10%" width="120%" height="120%" filterUnits="userSpaceOnUse" primitiveUnits="userSpaceOnUse"><feComponentTransfer color-interpolation-filters="sRGB"><feFuncR type="discrete" tableValues="1 1"/><feFuncG type="discrete" tableValues="0.733333 0.733333"/><feFuncB type="discrete" tableValues="0.694118 0.694118"/><feFuncA type="linear" slope="1" intercept="0"/></feComponentTransfer><feGaussianBlur stdDeviation="6.11111 6.11111"/></filter><filter id="fx40" x="-10%" y="-10%" width="120%" height="120%" filterUnits="userSpaceOnUse" primitiveUnits="userSpaceOnUse"><feComponentTransfer color-interpolation-filters="sRGB"><feFuncR type="discrete" tableValues="0 0"/><feFuncG type="discrete" tableValues="0 0"/><feFuncB type="discrete" tableValues="0 0"/><feFuncA type="linear" slope="1" intercept="0"/></feComponentTransfer><feGaussianBlur stdDeviation="6.11111 6.11111"/></filter><filter id="fx41" x="-10%" y="-10%" width="120%" height="120%" filterUnits="userSpaceOnUse" primitiveUnits="userSpaceOnUse"><feComponentTransfer color-interpolation-filters="sRGB"><feFuncR type="discrete" tableValues="0 0"/><feFuncG type="discrete" tableValues="0 0"/><feFuncB type="discrete" tableValues="0 0"/><feFuncA type="linear" slope="1" intercept="0"/></feComponentTransfer><feGaussianBlur stdDeviation="6.11111 6.11111"/></filter><filter id="fx42" x="-10%" y="-10%" width="120%" height="120%" filterUnits="userSpaceOnUse" primitiveUnits="userSpaceOnUse"><feComponentTransfer color-interpolation-filters="sRGB"><feFuncR type="discrete" tableValues="1 1"/><feFuncG type="discrete" tableValues="0.733333 0.733333"/><feFuncB type="discrete" tableValues="0.694118 0.694118"/><feFuncA type="linear" slope="1" intercept="0"/></feComponentTransfer><feGaussianBlur stdDeviation="6.11111 6.11111"/></filter><clipPath id="clip43"><rect x="135" y="149" width="3968" height="2285"/></clipPath><clipPath id="clip44"><rect x="-3" y="-3" width="76" height="62"/></clipPath><clipPath id="clip45"><rect x="0" y="0" width="68" height="56"/></clipPath><clipPath id="clip46"><rect x="-3" y="-3" width="52" height="49"/></clipPath><clipPath id="clip47"><rect x="0" y="0" width="46" height="42"/></clipPath><clipPath id="clip48"><rect x="-3" y="-3" width="52" height="49"/></clipPath><clipPath id="clip49"><rect x="0" y="0" width="46" height="42"/></clipPath><clipPath id="clip50"><rect x="-3" y="-3" width="52" height="49"/></clipPath><clipPath id="clip51"><rect x="0" y="0" width="46" height="42"/></clipPath><clipPath id="clip52"><rect x="-3" y="-3" width="55" height="49"/></clipPath><clipPath id="clip53"><rect x="0" y="0" width="47" height="42"/></clipPath><clipPath id="clip54"><rect x="-3" y="-3" width="55" height="49"/></clipPath><clipPath id="clip55"><rect x="0" y="0" width="49" height="42"/></clipPath><clipPath id="clip56"><rect x="-3" y="-3" width="55" height="49"/></clipPath><clipPath id="clip57"><rect x="0" y="0" width="49" height="43"/></clipPath><clipPath id="clip58"><rect x="-3" y="-3" width="55" height="49"/></clipPath><clipPath id="clip59"><rect x="0" y="0" width="48" height="42"/></clipPath><clipPath id="clip60"><rect x="-3" y="-3" width="55" height="49"/></clipPath><clipPath id="clip61"><rect x="0" y="0" width="49" height="42"/></clipPath><clipPath id="clip62"><rect x="-3" y="-3" width="1501" height="475"/></clipPath><clipPath id="clip63"><rect x="0" y="0" width="1495" height="470"/></clipPath><clipPath id="clip64"><rect x="1326" y="190" width="141" height="127"/></clipPath><clipPath id="clip65"><rect x="1326" y="190" width="141" height="127"/></clipPath><clipPath id="clip66"><rect x="1326" y="190" width="141" height="127"/></clipPath><clipPath id="clip67"><path d="M1190.2 183.597 1339.37 191.997 1331.82 326.071 1182.65 317.671Z" fill-rule="evenodd" clip-rule="evenodd"/></clipPath><clipPath id="clip68"><path d="M1190.2 183.597 1339.37 191.997 1331.82 326.071 1182.65 317.671Z" fill-rule="evenodd" clip-rule="evenodd"/></clipPath><clipPath id="clip69"><path d="M1190.2 183.597 1339.37 191.997 1331.82 326.071 1182.65 317.671Z" fill-rule="evenodd" clip-rule="evenodd"/></clipPath><clipPath id="clip70"><rect x="-3" y="-3" width="66" height="52"/></clipPath><clipPath id="clip71"><rect x="0" y="0" width="58" height="46"/></clipPath><clipPath id="clip72"><rect x="-3" y="-3" width="49" height="45"/></clipPath><clipPath id="clip73"><rect x="0" y="0" width="43" height="41"/></clipPath><clipPath id="clip74"><rect x="-3" y="-3" width="45" height="45"/></clipPath><clipPath id="clip75"><rect x="0" y="0" width="41" height="40"/></clipPath><clipPath id="clip76"><rect x="-3" y="-3" width="45" height="45"/></clipPath><clipPath id="clip77"><rect x="0" y="0" width="41" height="41"/></clipPath><clipPath id="clip78"><rect x="-3" y="-3" width="52" height="45"/></clipPath><clipPath id="clip79"><rect x="0" y="0" width="45" height="40"/></clipPath><clipPath id="clip80"><rect x="-3" y="-3" width="45" height="45"/></clipPath><clipPath id="clip81"><rect x="0" y="0" width="41" height="41"/></clipPath><clipPath id="clip82"><rect x="-3" y="-3" width="45" height="45"/></clipPath><clipPath id="clip83"><rect x="0" y="0" width="41" height="40"/></clipPath><clipPath id="clip84"><rect x="-3" y="-3" width="49" height="45"/></clipPath><clipPath id="clip85"><rect x="0" y="0" width="43" height="40"/></clipPath><clipPath id="clip86"><rect x="-3" y="-3" width="49" height="45"/></clipPath><clipPath id="clip87"><rect x="0" y="0" width="41" height="41"/></clipPath><clipPath id="clip88"><rect x="-3" y="-3" width="49" height="45"/></clipPath><clipPath id="clip89"><rect x="0" y="0" width="41" height="40"/></clipPath><clipPath id="clip90"><rect x="-3" y="-3" width="49" height="45"/></clipPath><clipPath id="clip91"><rect x="0" y="0" width="43" height="41"/></clipPath><clipPath id="clip92"><rect x="-3" y="-3" width="45" height="45"/></clipPath><clipPath id="clip93"><rect x="0" y="0" width="41" height="40"/></clipPath><clipPath id="clip94"><rect x="-3" y="-3" width="45" height="45"/></clipPath><clipPath id="clip95"><rect x="0" y="0" width="41" height="41"/></clipPath><clipPath id="clip96"><rect x="-3" y="-3" width="52" height="45"/></clipPath><clipPath id="clip97"><rect x="0" y="0" width="44" height="41"/></clipPath><clipPath id="clip98"><rect x="-3" y="-3" width="45" height="45"/></clipPath><clipPath id="clip99"><rect x="0" y="0" width="41" height="41"/></clipPath><clipPath id="clip100"><rect x="-3" y="-3" width="45" height="45"/></clipPath><clipPath id="clip101"><rect x="0" y="0" width="41" height="41"/></clipPath><clipPath id="clip102"><rect x="-3" y="-3" width="45" height="45"/></clipPath><clipPath id="clip103"><rect x="0" y="0" width="40" height="40"/></clipPath><clipPath id="clip104"><rect x="-3" y="-3" width="49" height="45"/></clipPath><clipPath id="clip105"><rect x="0" y="0" width="43" height="40"/></clipPath><clipPath id="clip106"><rect x="-3" y="-3" width="45" height="45"/></clipPath><clipPath id="clip107"><rect x="0" y="0" width="41" height="41"/></clipPath><clipPath id="clip108"><rect x="-3" y="-3" width="45" height="45"/></clipPath><clipPath id="clip109"><rect x="0" y="0" width="41" height="40"/></clipPath><clipPath id="clip110"><rect x="-3" y="-3" width="52" height="45"/></clipPath><clipPath id="clip111"><rect x="0" y="0" width="44" height="41"/></clipPath><clipPath id="clip112"><rect x="-3" y="-3" width="49" height="45"/></clipPath><clipPath id="clip113"><rect x="0" y="0" width="41" height="41"/></clipPath><clipPath id="clip114"><rect x="-3" y="-3" width="49" height="45"/></clipPath><clipPath id="clip115"><rect x="0" y="0" width="41" height="41"/></clipPath><clipPath id="clip116"><rect x="-3" y="-3" width="49" height="45"/></clipPath><clipPath id="clip117"><rect x="0" y="0" width="42" height="41"/></clipPath><clipPath id="clip118"><rect x="-3" y="-3" width="45" height="45"/></clipPath><clipPath id="clip119"><rect x="0" y="0" width="41" height="41"/></clipPath><clipPath id="clip120"><rect x="3133" y="1164" width="171" height="153"/></clipPath><clipPath id="clip121"><rect x="3133" y="1164" width="171" height="153"/></clipPath><clipPath id="clip122"><rect x="3133" y="1164" width="171" height="153"/></clipPath><clipPath id="clip123"><path d="M2969.87 1156.67 3149.6 1166.79 3140.51 1328.32 2960.77 1318.2Z" fill-rule="evenodd" clip-rule="evenodd"/></clipPath><clipPath id="clip124"><path d="M2969.87 1156.67 3149.6 1166.79 3140.51 1328.32 2960.77 1318.2Z" fill-rule="evenodd" clip-rule="evenodd"/></clipPath><clipPath id="clip125"><path d="M2969.87 1156.67 3149.6 1166.79 3140.51 1328.32 2960.77 1318.2Z" fill-rule="evenodd" clip-rule="evenodd"/></clipPath><clipPath id="clip126"><rect x="-3" y="-3" width="49" height="55"/></clipPath><clipPath id="clip127"><rect x="0" y="0" width="42" height="49"/></clipPath><clipPath id="clip128"><rect x="-3" y="-3" width="66" height="52"/></clipPath><clipPath id="clip129"><rect x="0" y="0" width="58" height="46"/></clipPath><clipPath id="clip130"><rect x="-3" y="-3" width="55" height="49"/></clipPath><clipPath id="clip131"><rect x="0" y="0" width="48" height="42"/></clipPath><clipPath id="clip132"><rect x="-3" y="-3" width="55" height="49"/></clipPath><clipPath id="clip133"><rect x="0" y="0" width="48" height="42"/></clipPath><clipPath id="clip134"><rect x="-3" y="-3" width="55" height="49"/></clipPath><clipPath id="clip135"><rect x="0" y="0" width="48" height="42"/></clipPath><clipPath id="clip136"><rect x="-3" y="-3" width="45" height="45"/></clipPath><clipPath id="clip137"><rect x="0" y="0" width="41" height="41"/></clipPath><clipPath id="clip138"><rect x="-3" y="-3" width="45" height="45"/></clipPath><clipPath id="clip139"><rect x="0" y="0" width="41" height="41"/></clipPath><clipPath id="clip140"><rect x="-3" y="-3" width="55" height="49"/></clipPath><clipPath id="clip141"><rect x="0" y="0" width="48" height="43"/></clipPath></defs><g clip-path="url(#clip43)" transform="translate(-135 -149)"><g clip-path="url(#clip44)" filter="url(#fx0)" transform="translate(1923 1643)"><g clip-path="url(#clip45)"><path d="M19.6332 21.1023C19.6332 20.7282 19.9364 20.4249 20.3105 20.4249L47.3558 20.4249C47.7299 20.4249 48.0332 20.7282 48.0332 21.1023L48.0332 34.8976C48.0332 35.2717 47.7299 35.5749 47.3558 35.5749L20.3105 35.5749C19.9364 35.5749 19.6332 35.2717 19.6332 34.8976Z" stroke="#000000" stroke-linejoin="bevel" stroke-miterlimit="10" fill="#CCCCCC" fill-rule="evenodd"/></g></g><path d="M518.5 981.236C518.5 943.826 548.826 913.5 586.236 913.5L3290.76 913.5C3328.17 913.5 3358.5 943.826 3358.5 981.236L3358.5 2360.76C3358.5 2398.17 3328.17 2428.5 3290.76 2428.5L586.236 2428.5C548.826 2428.5 518.5 2398.17 518.5 2360.76Z" stroke="#000000" stroke-width="11.4583" stroke-linejoin="bevel" stroke-miterlimit="10" fill="#CCCCCC" fill-rule="evenodd"/><g clip-path="url(#clip46)" filter="url(#fx1)" transform="translate(950 2148)"><g clip-path="url(#clip47)"><path d="M20.0035 21.0004C20.0035 20.3183 20.5565 19.7654 21.2385 19.7654L24.4285 19.7654C25.1106 19.7654 25.6635 20.3183 25.6635 21.0004L25.6635 21.0004C25.6635 21.6825 25.1106 22.2354 24.4285 22.2354L21.2385 22.2354C20.5565 22.2354 20.0035 21.6824 20.0035 21.0004Z" stroke="#000000" stroke-linejoin="bevel" stroke-miterlimit="10" fill="#FFFFFF" fill-rule="evenodd"/></g></g><path d="M671.5 2169C671.5 2100.79 726.793 2045.5 795 2045.5L1114 2045.5C1182.21 2045.5 1237.5 2100.79 1237.5 2169L1237.5 2169C1237.5 2237.21 1182.21 2292.5 1114 2292.5L795 2292.5C726.793 2292.5 671.5 2237.21 671.5 2169Z" stroke="#000000" stroke-width="4.58333" stroke-linejoin="bevel" stroke-miterlimit="10" fill="#FFFFFF" fill-rule="evenodd"/><g clip-path="url(#clip48)" filter="url(#fx2)" transform="translate(935 1781)"><g clip-path="url(#clip49)"><path d="M19.8533 20.9999C19.8533 20.3178 20.4062 19.7649 21.0883 19.7649L24.5783 19.7649C25.2603 19.7649 25.8133 20.3178 25.8133 20.9999L25.8133 20.9999C25.8133 21.682 25.2603 22.2349 24.5783 22.2349L21.0883 22.2349C20.4062 22.2349 19.8533 21.682 19.8533 20.9999Z" stroke="#000000" stroke-linejoin="bevel" stroke-miterlimit="10" fill="#FFFFFF" fill-rule="evenodd"/></g></g><path d="M641.5 1802C641.5 1733.79 696.793 1678.5 765 1678.5L1114 1678.5C1182.21 1678.5 1237.5 1733.79 1237.5 1802L1237.5 1802C1237.5 1870.21 1182.21 1925.5 1114 1925.5L765 1925.5C696.793 1925.5 641.5 1870.21 641.5 1802Z" stroke="#000000" stroke-width="4.58333" stroke-linejoin="bevel" stroke-miterlimit="10" fill="#FFFFFF" fill-rule="evenodd"/><g clip-path="url(#clip50)" filter="url(#fx3)" transform="translate(953 1451)"><g clip-path="url(#clip51)"><path d="M19.5237 21.0003C19.5237 20.3182 20.0766 19.7653 20.7587 19.7653L24.9087 19.7653C25.5908 19.7653 26.1437 20.3182 26.1437 21.0003L26.1437 21.0003C26.1437 21.6823 25.5907 22.2353 24.9087 22.2353L20.7587 22.2353C20.0766 22.2353 19.5237 21.6823 19.5237 21.0003Z" stroke="#000000" stroke-linejoin="bevel" stroke-miterlimit="10" fill="#FFFFFF" fill-rule="evenodd"/></g></g><path d="M626.5 1472C626.5 1403.79 681.793 1348.5 750 1348.5L1165 1348.5C1233.21 1348.5 1288.5 1403.79 1288.5 1472L1288.5 1472C1288.5 1540.21 1233.21 1595.5 1165 1595.5L750 1595.5C681.793 1595.5 626.5 1540.21 626.5 1472Z" stroke="#000000" stroke-width="4.58333" stroke-linejoin="bevel" stroke-miterlimit="10" fill="#FFFFFF" fill-rule="evenodd"/><g clip-path="url(#clip52)" filter="url(#fx4)" transform="translate(915 1135)"><g clip-path="url(#clip53)"><path d="M20.4234 21C20.4234 20.3179 20.9763 19.765 21.6584 19.765L26.0084 19.765C26.6905 19.765 27.2434 20.3179 27.2434 21L27.2434 21C27.2434 21.6821 26.6905 22.235 26.0084 22.235L21.6584 22.235C20.9763 22.235 20.4234 21.6821 20.4234 21Z" stroke="#000000" stroke-linejoin="bevel" stroke-miterlimit="10" fill="#FFFFFF" fill-rule="evenodd"/></g></g><path d="M579.5 1156C579.5 1087.79 634.793 1032.5 703 1032.5L1138 1032.5C1206.21 1032.5 1261.5 1087.79 1261.5 1156L1261.5 1156C1261.5 1224.21 1206.21 1279.5 1138 1279.5L703 1279.5C634.793 1279.5 579.5 1224.21 579.5 1156Z" stroke="#000000" stroke-width="4.58333" stroke-linejoin="bevel" stroke-miterlimit="10" fill="#FFFFFF" fill-rule="evenodd"/><g clip-path="url(#clip54)" filter="url(#fx5)" transform="translate(2640 283)"><g clip-path="url(#clip55)"><rect x="19.8284" y="19.5651" width="9.01" height="2.87" stroke="#000000" stroke-linejoin="bevel" stroke-miterlimit="10" fill="#FFFFFF"/></g></g><rect x="2195.5" y="160.5" width="901" height="287" stroke="#000000" stroke-width="4.58333" stroke-linejoin="bevel" stroke-miterlimit="10" fill="#FFFFFF"/><text font-family="Times New Roman,Times New Roman_MSFontService,sans-serif" font-weight="700" font-size="92" transform="matrix(1 0 0 1 2212.29 266)">Policy_data_manager</text><text font-family="Times New Roman,Times New Roman_MSFontService,sans-serif" font-weight="400" font-size="92" transform="matrix(1 0 0 1 2385.61 376)">.get_payoff( )</text><g clip-path="url(#clip56)" filter="url(#fx6)" transform="translate(1629 282)"><g clip-path="url(#clip57)"><rect x="20.1384" y="20.07" width="8.39" height="2.86" stroke="#000000" stroke-linejoin="bevel" stroke-miterlimit="10" fill="#FFFFFF"/></g></g><rect x="1215.5" y="160.5" width="839" height="286" stroke="#000000" stroke-width="4.58333" stroke-linejoin="bevel" stroke-miterlimit="10" fill="#FFFFFF"/><text font-family="Times New Roman,Times New Roman_MSFontService,sans-serif" font-weight="700" font-size="92" transform="matrix(1 0 0 1 1385.78 279)">Meta_solver</text><text font-family="Times New Roman,Times New Roman_MSFontService,sans-serif" font-weight="400" font-size="92" transform="matrix(1 0 0 1 1309.58 389)">.compute_nash( )</text><g clip-path="url(#clip58)" filter="url(#fx7)" transform="translate(643 283)"><g clip-path="url(#clip59)"><rect x="20.3683" y="19.6451" width="7.93" height="2.71" stroke="#000000" stroke-linejoin="bevel" stroke-miterlimit="10" fill="#FFFFFF"/></g></g><rect x="252.5" y="168.5" width="793" height="271" stroke="#000000" stroke-width="4.58333" stroke-linejoin="bevel" stroke-miterlimit="10" fill="#FFFFFF"/><text font-family="Times New Roman,Times New Roman_MSFontService,sans-serif" font-weight="700" font-size="92" transform="matrix(1 0 0 1 381.411 270)">Agent_manger</text><text font-family="Times New Roman,Times New Roman_MSFontService,sans-serif" font-weight="400" font-size="92" transform="matrix(1 0 0 1 326.136 380)">.gen_policy_dist( )</text><g clip-path="url(#clip60)" filter="url(#fx8)" transform="translate(675 719)"><g clip-path="url(#clip61)"><path d="M19.7483 20.0668C19.7483 20.0161 19.7893 19.9751 19.84 19.9751L28.8266 19.9751C28.8773 19.9751 28.9183 20.0161 28.9183 20.0668L28.9183 21.9334C28.9183 21.9841 28.8773 22.0251 28.8266 22.0251L19.84 22.0251C19.7893 22.0251 19.7483 21.9841 19.7483 21.9334Z" stroke="#000000" stroke-linejoin="bevel" stroke-miterlimit="10" fill="#FFFFFF" fill-rule="evenodd"/></g></g><path d="M222.5 646.666C222.5 641.604 226.604 637.5 231.666 637.5L1130.33 637.5C1135.4 637.5 1139.5 641.604 1139.5 646.666L1139.5 833.334C1139.5 838.396 1135.4 842.5 1130.33 842.5L231.666 842.5C226.604 842.5 222.5 838.396 222.5 833.334Z" stroke="#000000" stroke-width="4.58333" stroke-linejoin="bevel" stroke-miterlimit="10" fill="#FFFFFF" fill-rule="evenodd"/><text font-family="Times New Roman,Times New Roman_MSFontService,sans-serif" font-weight="700" font-size="92" transform="matrix(1 0 0 1 254.938 765)">Train_manager</text><text font-family="Times New Roman,Times New Roman_MSFontService,sans-serif" font-weight="400" font-size="92" transform="matrix(1 0 0 1 870.823 765)">.train()</text><path d="M2195.39 311.714 2126.15 311.374 2126.23 295.333 2195.46 295.672ZM2134.09 327.455 2054 303 2134.33 279.331Z"/><path d="M0.031009-8.02077 97.6447-7.64339 97.5826 8.39816-0.031009 8.02077ZM89.6859-23.7159 169.801 0.656463 89.4998 24.4087Z" transform="matrix(-1 0 0 1 1214.8 303)"/><path d="M8.02028-0.0944291 9.3798 115.376-6.66076 115.564-8.02028 0.0944291ZM25.3259 107.166 2.20938 187.652-22.7957 107.733Z" transform="matrix(-1 0 0 1 683.209 449)"/><text font-family="Times New Roman,Times New Roman_MSFontService,sans-serif" font-weight="400" font-size="83" transform="matrix(1 0 0 1 612.257 1182)">Start async </text><text font-family="Times New Roman,Times New Roman_MSFontService,sans-serif" font-weight="700" font-size="83" transform="matrix(1 0 0 1 997.257 1182)">rollout</text><text font-family="Times New Roman,Times New Roman_MSFontService,sans-serif" font-weight="400" font-size="83" transform="matrix(1 0 0 1 673.971 1509)">Setup </text><text font-family="Times New Roman,Times New Roman_MSFontService,sans-serif" font-weight="700" font-size="83" transform="matrix(1 0 0 1 882.513 1509)">prefetcher</text><text font-family="Times New Roman,Times New Roman_MSFontService,sans-serif" font-weight="700" font-size="83" transform="matrix(1 0 0 1 722.862 2193)">Trainer</text><text font-family="Times New Roman,Times New Roman_MSFontService,sans-serif" font-weight="400" font-size="83" transform="matrix(1 0 0 1 997.862 2193)">.init()</text><text font-family="Times New Roman,Times New Roman_MSFontService,sans-serif" font-weight="400" font-size="83" transform="matrix(1 0 0 1 704.605 1833)">Setup </text><text font-family="Times New Roman,Times New Roman_MSFontService,sans-serif" font-weight="700" font-size="83" transform="matrix(1 0 0 1 913.147 1833)">stopper</text><g clip-path="url(#clip62)" filter="url(#fx9)" transform="translate(1689 1002)"><g clip-path="url(#clip63)"><rect x="24.5699" y="24.9285" width="1445.86" height="420.81" stroke="#A9D18E" stroke-width="10" stroke-linejoin="bevel" stroke-miterlimit="10" fill="#C7E8AC"/><path d="M12.9375 0 0.78125-45.8125 7-45.8125 13.9687-15.7812C14.7187-12.6354 15.3646-9.51042 15.9062-6.40625 17.0729-11.3021 17.7604-14.125 17.9687-14.875L26.6875-45.8125 34-45.8125 40.5625-22.625C42.2083-16.875 43.3958-11.4687 44.125-6.40625 44.7083-9.30208 45.4687-12.625 46.4062-16.375L53.5937-45.8125 59.6875-45.8125 47.125 0 41.2812 0 31.625-34.9062C30.8125-37.8229 30.3333-39.6146 30.1875-40.2812 29.7083-38.1771 29.2604-36.3854 28.8437-34.9062L19.125 0ZM62.8542-16.5937C62.8542-22.7396 64.5625-27.2917 67.9792-30.25 70.8333-32.7083 74.3125-33.9375 78.4167-33.9375 82.9792-33.9375 86.7083-32.4427 89.6042-29.4531 92.5-26.4635 93.9479-22.3333 93.9479-17.0625 93.9479-12.7917 93.3073-9.43229 92.026-6.98437 90.7448-4.53646 88.8802-2.63542 86.4323-1.28125 83.9844 0.0729166 81.3125 0.75 78.4167 0.75 73.7708 0.75 70.0156-0.739583 67.151-3.71875 64.2865-6.69792 62.8542-10.9896 62.8542-16.5937ZM68.6354-16.5937C68.6354-12.3437 69.5625-9.16146 71.4167-7.04687 73.2708-4.93229 75.6042-3.875 78.4167-3.875 81.2083-3.875 83.5312-4.9375 85.3854-7.0625 87.2396-9.1875 88.1667-12.4271 88.1667-16.7812 88.1667-20.8854 87.2344-23.9948 85.3698-26.1094 83.5052-28.224 81.1875-29.2812 78.4167-29.2812 75.6042-29.2812 73.2708-28.2292 71.4167-26.125 69.5625-24.0208 68.6354-20.8437 68.6354-16.5937ZM100.406 0 100.406-33.1875 105.469-33.1875 105.469-28.1562C106.76-30.5104 107.953-32.0625 109.047-32.8125 110.141-33.5625 111.344-33.9375 112.656-33.9375 114.552-33.9375 116.479-33.3333 118.438-32.125L116.5-26.9062C115.125-27.7187 113.75-28.125 112.375-28.125 111.146-28.125 110.042-27.7552 109.062-27.0156 108.083-26.276 107.385-25.25 106.969-23.9375 106.344-21.9375 106.031-19.75 106.031-17.375L106.031 0ZM121.698 0 121.698-45.8125 127.323-45.8125 127.323-19.6875 140.635-33.1875 147.917-33.1875 135.229-20.875 149.198 0 142.26 0 131.292-16.9687 127.323-13.1562 127.323 0ZM176.469-10.6875 182.281-9.96875C181.365-6.57292 179.667-3.9375 177.188-2.0625 174.708-0.1875 171.542 0.75 167.688 0.75 162.833 0.75 158.984-0.744792 156.141-3.73437 153.297-6.72396 151.875-10.9167 151.875-16.3125 151.875-21.8958 153.312-26.2292 156.188-29.3125 159.062-32.3958 162.792-33.9375 167.375-33.9375 171.812-33.9375 175.438-32.4271 178.25-29.4062 181.062-26.3854 182.469-22.1354 182.469-16.6562 182.469-16.3229 182.458-15.8229 182.438-15.1562L157.688-15.1562C157.896-11.5104 158.927-8.71875 160.781-6.78125 162.635-4.84375 164.948-3.875 167.719-3.875 169.781-3.875 171.542-4.41667 173-5.5 174.458-6.58333 175.615-8.3125 176.469-10.6875ZM158-19.7812 176.531-19.7812C176.281-22.5729 175.573-24.6667 174.406-26.0625 172.615-28.2292 170.292-29.3125 167.438-29.3125 164.854-29.3125 162.682-28.4479 160.922-26.7187 159.161-24.9896 158.188-22.6771 158-19.7812ZM189.208 0 189.208-33.1875 194.271-33.1875 194.271-28.1562C195.562-30.5104 196.755-32.0625 197.849-32.8125 198.943-33.5625 200.146-33.9375 201.458-33.9375 203.354-33.9375 205.281-33.3333 207.24-32.125L205.302-26.9062C203.927-27.7187 202.552-28.125 201.177-28.125 199.948-28.125 198.844-27.7552 197.865-27.0156 196.885-26.276 196.187-25.25 195.771-23.9375 195.146-21.9375 194.833-19.75 194.833-17.375L194.833 0ZM208.906-22.5937C208.906-28.0104 209.464-32.3698 210.578-35.6719 211.693-38.974 213.349-41.5208 215.547-43.3125 217.745-45.1042 220.51-46 223.844-46 226.302-46 228.458-45.5052 230.312-44.5156 232.167-43.526 233.698-42.099 234.906-40.2344 236.115-38.3698 237.062-36.099 237.75-33.4219 238.437-30.7448 238.781-27.1354 238.781-22.5937 238.781-17.2187 238.229-12.8802 237.125-9.57812 236.021-6.27604 234.37-3.72396 232.172-1.92187 229.974-0.119792 227.198 0.78125 223.844 0.78125 219.427 0.78125 215.958-0.802083 213.438-3.96875 210.417-7.78125 208.906-13.9896 208.906-22.5937ZM214.688-22.5937C214.687-15.0729 215.568-10.0677 217.328-7.57812 219.089-5.08854 221.26-3.84375 223.844-3.84375 226.427-3.84375 228.599-5.09375 230.359-7.59375 232.12-10.0937 233-15.0937 233-22.5937 233-30.1354 232.12-35.1458 230.359-37.625 228.599-40.1042 226.406-41.3437 223.781-41.3437 221.198-41.3437 219.135-40.25 217.594-38.0625 215.656-35.2708 214.687-30.1146 214.688-22.5937Z" transform="matrix(0.83 0 0 0.83 60.521 130)"/><path d="M12.9375 0 0.78125-45.8125 7-45.8125 13.9687-15.7812C14.7187-12.6354 15.3646-9.51042 15.9062-6.40625 17.0729-11.3021 17.7604-14.125 17.9687-14.875L26.6875-45.8125 34-45.8125 40.5625-22.625C42.2083-16.875 43.3958-11.4687 44.125-6.40625 44.7083-9.30208 45.4687-12.625 46.4062-16.375L53.5937-45.8125 59.6875-45.8125 47.125 0 41.2812 0 31.625-34.9062C30.8125-37.8229 30.3333-39.6146 30.1875-40.2812 29.7083-38.1771 29.2604-36.3854 28.8437-34.9062L19.125 0ZM62.8542-16.5937C62.8542-22.7396 64.5625-27.2917 67.9792-30.25 70.8333-32.7083 74.3125-33.9375 78.4167-33.9375 82.9792-33.9375 86.7083-32.4427 89.6042-29.4531 92.5-26.4635 93.9479-22.3333 93.9479-17.0625 93.9479-12.7917 93.3073-9.43229 92.026-6.98437 90.7448-4.53646 88.8802-2.63542 86.4323-1.28125 83.9844 0.0729166 81.3125 0.75 78.4167 0.75 73.7708 0.75 70.0156-0.739583 67.151-3.71875 64.2865-6.69792 62.8542-10.9896 62.8542-16.5937ZM68.6354-16.5937C68.6354-12.3437 69.5625-9.16146 71.4167-7.04687 73.2708-4.93229 75.6042-3.875 78.4167-3.875 81.2083-3.875 83.5312-4.9375 85.3854-7.0625 87.2396-9.1875 88.1667-12.4271 88.1667-16.7812 88.1667-20.8854 87.2344-23.9948 85.3698-26.1094 83.5052-28.224 81.1875-29.2812 78.4167-29.2812 75.6042-29.2812 73.2708-28.2292 71.4167-26.125 69.5625-24.0208 68.6354-20.8437 68.6354-16.5937ZM100.406 0 100.406-33.1875 105.469-33.1875 105.469-28.1562C106.76-30.5104 107.953-32.0625 109.047-32.8125 110.141-33.5625 111.344-33.9375 112.656-33.9375 114.552-33.9375 116.479-33.3333 118.438-32.125L116.5-26.9062C115.125-27.7187 113.75-28.125 112.375-28.125 111.146-28.125 110.042-27.7552 109.062-27.0156 108.083-26.276 107.385-25.25 106.969-23.9375 106.344-21.9375 106.031-19.75 106.031-17.375L106.031 0ZM121.698 0 121.698-45.8125 127.323-45.8125 127.323-19.6875 140.635-33.1875 147.917-33.1875 135.229-20.875 149.198 0 142.26 0 131.292-16.9687 127.323-13.1562 127.323 0ZM176.469-10.6875 182.281-9.96875C181.365-6.57292 179.667-3.9375 177.188-2.0625 174.708-0.1875 171.542 0.75 167.688 0.75 162.833 0.75 158.984-0.744792 156.141-3.73437 153.297-6.72396 151.875-10.9167 151.875-16.3125 151.875-21.8958 153.312-26.2292 156.188-29.3125 159.062-32.3958 162.792-33.9375 167.375-33.9375 171.812-33.9375 175.438-32.4271 178.25-29.4062 181.062-26.3854 182.469-22.1354 182.469-16.6562 182.469-16.3229 182.458-15.8229 182.438-15.1562L157.688-15.1562C157.896-11.5104 158.927-8.71875 160.781-6.78125 162.635-4.84375 164.948-3.875 167.719-3.875 169.781-3.875 171.542-4.41667 173-5.5 174.458-6.58333 175.615-8.3125 176.469-10.6875ZM158-19.7812 176.531-19.7812C176.281-22.5729 175.573-24.6667 174.406-26.0625 172.615-28.2292 170.292-29.3125 167.438-29.3125 164.854-29.3125 162.682-28.4479 160.922-26.7187 159.161-24.9896 158.188-22.6771 158-19.7812ZM189.208 0 189.208-33.1875 194.271-33.1875 194.271-28.1562C195.562-30.5104 196.755-32.0625 197.849-32.8125 198.943-33.5625 200.146-33.9375 201.458-33.9375 203.354-33.9375 205.281-33.3333 207.24-32.125L205.302-26.9062C203.927-27.7187 202.552-28.125 201.177-28.125 199.948-28.125 198.844-27.7552 197.865-27.0156 196.885-26.276 196.187-25.25 195.771-23.9375 195.146-21.9375 194.833-19.75 194.833-17.375L194.833 0ZM208.906-22.5937C208.906-28.0104 209.464-32.3698 210.578-35.6719 211.693-38.974 213.349-41.5208 215.547-43.3125 217.745-45.1042 220.51-46 223.844-46 226.302-46 228.458-45.5052 230.312-44.5156 232.167-43.526 233.698-42.099 234.906-40.2344 236.115-38.3698 237.062-36.099 237.75-33.4219 238.437-30.7448 238.781-27.1354 238.781-22.5937 238.781-17.2187 238.229-12.8802 237.125-9.57812 236.021-6.27604 234.37-3.72396 232.172-1.92187 229.974-0.119792 227.198 0.78125 223.844 0.78125 219.427 0.78125 215.958-0.802083 213.438-3.96875 210.417-7.78125 208.906-13.9896 208.906-22.5937ZM214.688-22.5937C214.687-15.0729 215.568-10.0677 217.328-7.57812 219.089-5.08854 221.26-3.84375 223.844-3.84375 226.427-3.84375 228.599-5.09375 230.359-7.59375 232.12-10.0937 233-15.0937 233-22.5937 233-30.1354 232.12-35.1458 230.359-37.625 228.599-40.1042 226.406-41.3437 223.781-41.3437 221.198-41.3437 219.135-40.25 217.594-38.0625 215.656-35.2708 214.687-30.1146 214.688-22.5937Z" transform="matrix(0.83 0 0 0.83 60.521 130)"/><path d="M12.9375 0 0.78125-45.8125 7-45.8125 13.9687-15.7812C14.7187-12.6354 15.3646-9.51042 15.9062-6.40625 17.0729-11.3021 17.7604-14.125 17.9687-14.875L26.6875-45.8125 34-45.8125 40.5625-22.625C42.2083-16.875 43.3958-11.4687 44.125-6.40625 44.7083-9.30208 45.4687-12.625 46.4062-16.375L53.5937-45.8125 59.6875-45.8125 47.125 0 41.2812 0 31.625-34.9062C30.8125-37.8229 30.3333-39.6146 30.1875-40.2812 29.7083-38.1771 29.2604-36.3854 28.8437-34.9062L19.125 0ZM62.8542-16.5937C62.8542-22.7396 64.5625-27.2917 67.9792-30.25 70.8333-32.7083 74.3125-33.9375 78.4167-33.9375 82.9792-33.9375 86.7083-32.4427 89.6042-29.4531 92.5-26.4635 93.9479-22.3333 93.9479-17.0625 93.9479-12.7917 93.3073-9.43229 92.026-6.98437 90.7448-4.53646 88.8802-2.63542 86.4323-1.28125 83.9844 0.0729166 81.3125 0.75 78.4167 0.75 73.7708 0.75 70.0156-0.739583 67.151-3.71875 64.2865-6.69792 62.8542-10.9896 62.8542-16.5937ZM68.6354-16.5937C68.6354-12.3437 69.5625-9.16146 71.4167-7.04687 73.2708-4.93229 75.6042-3.875 78.4167-3.875 81.2083-3.875 83.5312-4.9375 85.3854-7.0625 87.2396-9.1875 88.1667-12.4271 88.1667-16.7812 88.1667-20.8854 87.2344-23.9948 85.3698-26.1094 83.5052-28.224 81.1875-29.2812 78.4167-29.2812 75.6042-29.2812 73.2708-28.2292 71.4167-26.125 69.5625-24.0208 68.6354-20.8437 68.6354-16.5937ZM100.406 0 100.406-33.1875 105.469-33.1875 105.469-28.1562C106.76-30.5104 107.953-32.0625 109.047-32.8125 110.141-33.5625 111.344-33.9375 112.656-33.9375 114.552-33.9375 116.479-33.3333 118.438-32.125L116.5-26.9062C115.125-27.7187 113.75-28.125 112.375-28.125 111.146-28.125 110.042-27.7552 109.062-27.0156 108.083-26.276 107.385-25.25 106.969-23.9375 106.344-21.9375 106.031-19.75 106.031-17.375L106.031 0ZM121.698 0 121.698-45.8125 127.323-45.8125 127.323-19.6875 140.635-33.1875 147.917-33.1875 135.229-20.875 149.198 0 142.26 0 131.292-16.9687 127.323-13.1562 127.323 0ZM176.469-10.6875 182.281-9.96875C181.365-6.57292 179.667-3.9375 177.188-2.0625 174.708-0.1875 171.542 0.75 167.688 0.75 162.833 0.75 158.984-0.744792 156.141-3.73437 153.297-6.72396 151.875-10.9167 151.875-16.3125 151.875-21.8958 153.312-26.2292 156.188-29.3125 159.062-32.3958 162.792-33.9375 167.375-33.9375 171.812-33.9375 175.438-32.4271 178.25-29.4062 181.062-26.3854 182.469-22.1354 182.469-16.6562 182.469-16.3229 182.458-15.8229 182.438-15.1562L157.688-15.1562C157.896-11.5104 158.927-8.71875 160.781-6.78125 162.635-4.84375 164.948-3.875 167.719-3.875 169.781-3.875 171.542-4.41667 173-5.5 174.458-6.58333 175.615-8.3125 176.469-10.6875ZM158-19.7812 176.531-19.7812C176.281-22.5729 175.573-24.6667 174.406-26.0625 172.615-28.2292 170.292-29.3125 167.438-29.3125 164.854-29.3125 162.682-28.4479 160.922-26.7187 159.161-24.9896 158.188-22.6771 158-19.7812ZM189.208 0 189.208-33.1875 194.271-33.1875 194.271-28.1562C195.562-30.5104 196.755-32.0625 197.849-32.8125 198.943-33.5625 200.146-33.9375 201.458-33.9375 203.354-33.9375 205.281-33.3333 207.24-32.125L205.302-26.9062C203.927-27.7187 202.552-28.125 201.177-28.125 199.948-28.125 198.844-27.7552 197.865-27.0156 196.885-26.276 196.187-25.25 195.771-23.9375 195.146-21.9375 194.833-19.75 194.833-17.375L194.833 0ZM230.094 0 224.469 0 224.469-35.8437C223.115-34.5521 221.339-33.2604 219.141-31.9687 216.943-30.6771 214.969-29.7083 213.219-29.0625L213.219-34.5C216.365-35.9792 219.115-37.7708 221.469-39.875 223.823-41.9792 225.49-44.0208 226.469-46L230.094-46Z" transform="matrix(0.83 0 0 0.83 60.521 249)"/><path d="M12.9375 0 0.78125-45.8125 7-45.8125 13.9687-15.7812C14.7187-12.6354 15.3646-9.51042 15.9062-6.40625 17.0729-11.3021 17.7604-14.125 17.9687-14.875L26.6875-45.8125 34-45.8125 40.5625-22.625C42.2083-16.875 43.3958-11.4687 44.125-6.40625 44.7083-9.30208 45.4687-12.625 46.4062-16.375L53.5937-45.8125 59.6875-45.8125 47.125 0 41.2812 0 31.625-34.9062C30.8125-37.8229 30.3333-39.6146 30.1875-40.2812 29.7083-38.1771 29.2604-36.3854 28.8437-34.9062L19.125 0ZM62.8542-16.5937C62.8542-22.7396 64.5625-27.2917 67.9792-30.25 70.8333-32.7083 74.3125-33.9375 78.4167-33.9375 82.9792-33.9375 86.7083-32.4427 89.6042-29.4531 92.5-26.4635 93.9479-22.3333 93.9479-17.0625 93.9479-12.7917 93.3073-9.43229 92.026-6.98437 90.7448-4.53646 88.8802-2.63542 86.4323-1.28125 83.9844 0.0729166 81.3125 0.75 78.4167 0.75 73.7708 0.75 70.0156-0.739583 67.151-3.71875 64.2865-6.69792 62.8542-10.9896 62.8542-16.5937ZM68.6354-16.5937C68.6354-12.3437 69.5625-9.16146 71.4167-7.04687 73.2708-4.93229 75.6042-3.875 78.4167-3.875 81.2083-3.875 83.5312-4.9375 85.3854-7.0625 87.2396-9.1875 88.1667-12.4271 88.1667-16.7812 88.1667-20.8854 87.2344-23.9948 85.3698-26.1094 83.5052-28.224 81.1875-29.2812 78.4167-29.2812 75.6042-29.2812 73.2708-28.2292 71.4167-26.125 69.5625-24.0208 68.6354-20.8437 68.6354-16.5937ZM100.406 0 100.406-33.1875 105.469-33.1875 105.469-28.1562C106.76-30.5104 107.953-32.0625 109.047-32.8125 110.141-33.5625 111.344-33.9375 112.656-33.9375 114.552-33.9375 116.479-33.3333 118.438-32.125L116.5-26.9062C115.125-27.7187 113.75-28.125 112.375-28.125 111.146-28.125 110.042-27.7552 109.062-27.0156 108.083-26.276 107.385-25.25 106.969-23.9375 106.344-21.9375 106.031-19.75 106.031-17.375L106.031 0ZM121.698 0 121.698-45.8125 127.323-45.8125 127.323-19.6875 140.635-33.1875 147.917-33.1875 135.229-20.875 149.198 0 142.26 0 131.292-16.9687 127.323-13.1562 127.323 0ZM176.469-10.6875 182.281-9.96875C181.365-6.57292 179.667-3.9375 177.188-2.0625 174.708-0.1875 171.542 0.75 167.688 0.75 162.833 0.75 158.984-0.744792 156.141-3.73437 153.297-6.72396 151.875-10.9167 151.875-16.3125 151.875-21.8958 153.312-26.2292 156.188-29.3125 159.062-32.3958 162.792-33.9375 167.375-33.9375 171.812-33.9375 175.438-32.4271 178.25-29.4062 181.062-26.3854 182.469-22.1354 182.469-16.6562 182.469-16.3229 182.458-15.8229 182.438-15.1562L157.688-15.1562C157.896-11.5104 158.927-8.71875 160.781-6.78125 162.635-4.84375 164.948-3.875 167.719-3.875 169.781-3.875 171.542-4.41667 173-5.5 174.458-6.58333 175.615-8.3125 176.469-10.6875ZM158-19.7812 176.531-19.7812C176.281-22.5729 175.573-24.6667 174.406-26.0625 172.615-28.2292 170.292-29.3125 167.438-29.3125 164.854-29.3125 162.682-28.4479 160.922-26.7187 159.161-24.9896 158.188-22.6771 158-19.7812ZM189.208 0 189.208-33.1875 194.271-33.1875 194.271-28.1562C195.562-30.5104 196.755-32.0625 197.849-32.8125 198.943-33.5625 200.146-33.9375 201.458-33.9375 203.354-33.9375 205.281-33.3333 207.24-32.125L205.302-26.9062C203.927-27.7187 202.552-28.125 201.177-28.125 199.948-28.125 198.844-27.7552 197.865-27.0156 196.885-26.276 196.187-25.25 195.771-23.9375 195.146-21.9375 194.833-19.75 194.833-17.375L194.833 0ZM230.094 0 224.469 0 224.469-35.8437C223.115-34.5521 221.339-33.2604 219.141-31.9687 216.943-30.6771 214.969-29.7083 213.219-29.0625L213.219-34.5C216.365-35.9792 219.115-37.7708 221.469-39.875 223.823-41.9792 225.49-44.0208 226.469-46L230.094-46Z" transform="matrix(0.83 0 0 0.83 60.521 249)"/><path d="M12.9375 0 0.78125-45.8125 7-45.8125 13.9687-15.7812C14.7187-12.6354 15.3646-9.51042 15.9062-6.40625 17.0729-11.3021 17.7604-14.125 17.9687-14.875L26.6875-45.8125 34-45.8125 40.5625-22.625C42.2083-16.875 43.3958-11.4687 44.125-6.40625 44.7083-9.30208 45.4687-12.625 46.4062-16.375L53.5937-45.8125 59.6875-45.8125 47.125 0 41.2812 0 31.625-34.9062C30.8125-37.8229 30.3333-39.6146 30.1875-40.2812 29.7083-38.1771 29.2604-36.3854 28.8437-34.9062L19.125 0ZM62.8542-16.5937C62.8542-22.7396 64.5625-27.2917 67.9792-30.25 70.8333-32.7083 74.3125-33.9375 78.4167-33.9375 82.9792-33.9375 86.7083-32.4427 89.6042-29.4531 92.5-26.4635 93.9479-22.3333 93.9479-17.0625 93.9479-12.7917 93.3073-9.43229 92.026-6.98437 90.7448-4.53646 88.8802-2.63542 86.4323-1.28125 83.9844 0.0729166 81.3125 0.75 78.4167 0.75 73.7708 0.75 70.0156-0.739583 67.151-3.71875 64.2865-6.69792 62.8542-10.9896 62.8542-16.5937ZM68.6354-16.5937C68.6354-12.3437 69.5625-9.16146 71.4167-7.04687 73.2708-4.93229 75.6042-3.875 78.4167-3.875 81.2083-3.875 83.5312-4.9375 85.3854-7.0625 87.2396-9.1875 88.1667-12.4271 88.1667-16.7812 88.1667-20.8854 87.2344-23.9948 85.3698-26.1094 83.5052-28.224 81.1875-29.2812 78.4167-29.2812 75.6042-29.2812 73.2708-28.2292 71.4167-26.125 69.5625-24.0208 68.6354-20.8437 68.6354-16.5937ZM100.406 0 100.406-33.1875 105.469-33.1875 105.469-28.1562C106.76-30.5104 107.953-32.0625 109.047-32.8125 110.141-33.5625 111.344-33.9375 112.656-33.9375 114.552-33.9375 116.479-33.3333 118.438-32.125L116.5-26.9062C115.125-27.7187 113.75-28.125 112.375-28.125 111.146-28.125 110.042-27.7552 109.062-27.0156 108.083-26.276 107.385-25.25 106.969-23.9375 106.344-21.9375 106.031-19.75 106.031-17.375L106.031 0ZM121.698 0 121.698-45.8125 127.323-45.8125 127.323-19.6875 140.635-33.1875 147.917-33.1875 135.229-20.875 149.198 0 142.26 0 131.292-16.9687 127.323-13.1562 127.323 0ZM176.469-10.6875 182.281-9.96875C181.365-6.57292 179.667-3.9375 177.188-2.0625 174.708-0.1875 171.542 0.75 167.688 0.75 162.833 0.75 158.984-0.744792 156.141-3.73437 153.297-6.72396 151.875-10.9167 151.875-16.3125 151.875-21.8958 153.312-26.2292 156.188-29.3125 159.062-32.3958 162.792-33.9375 167.375-33.9375 171.812-33.9375 175.438-32.4271 178.25-29.4062 181.062-26.3854 182.469-22.1354 182.469-16.6562 182.469-16.3229 182.458-15.8229 182.438-15.1562L157.688-15.1562C157.896-11.5104 158.927-8.71875 160.781-6.78125 162.635-4.84375 164.948-3.875 167.719-3.875 169.781-3.875 171.542-4.41667 173-5.5 174.458-6.58333 175.615-8.3125 176.469-10.6875ZM158-19.7812 176.531-19.7812C176.281-22.5729 175.573-24.6667 174.406-26.0625 172.615-28.2292 170.292-29.3125 167.438-29.3125 164.854-29.3125 162.682-28.4479 160.922-26.7187 159.161-24.9896 158.188-22.6771 158-19.7812ZM189.208 0 189.208-33.1875 194.271-33.1875 194.271-28.1562C195.562-30.5104 196.755-32.0625 197.849-32.8125 198.943-33.5625 200.146-33.9375 201.458-33.9375 203.354-33.9375 205.281-33.3333 207.24-32.125L205.302-26.9062C203.927-27.7187 202.552-28.125 201.177-28.125 199.948-28.125 198.844-27.7552 197.865-27.0156 196.885-26.276 196.187-25.25 195.771-23.9375 195.146-21.9375 194.833-19.75 194.833-17.375L194.833 0ZM238.469-5.40625 238.469 0 208.188 0C208.146-1.35417 208.365-2.65625 208.844-3.90625 209.615-5.96875 210.849-8 212.547-10 214.245-12 216.698-14.3125 219.906-16.9375 224.885-21.0208 228.25-24.2552 230-26.6406 231.75-29.026 232.625-31.2812 232.625-33.4062 232.625-35.6354 231.828-37.5156 230.234-39.0469 228.641-40.5781 226.562-41.3437 224-41.3437 221.292-41.3437 219.125-40.5312 217.5-38.9062 215.875-37.2812 215.052-35.0312 215.031-32.1562L209.25-32.75C209.646-37.0625 211.135-40.349 213.719-42.6094 216.302-44.8698 219.771-46 224.125-46 228.521-46 232-44.7812 234.562-42.3437 237.125-39.9062 238.406-36.8854 238.406-33.2812 238.406-31.4479 238.031-29.6458 237.281-27.875 236.531-26.1042 235.286-24.2396 233.547-22.2812 231.807-20.3229 228.917-17.6354 224.875-14.2187 221.5-11.3854 219.333-9.46354 218.375-8.45312 217.417-7.44271 216.625-6.42708 216-5.40625Z" transform="matrix(0.83 0 0 0.83 60.521 380)"/><path d="M12.9375 0 0.78125-45.8125 7-45.8125 13.9687-15.7812C14.7187-12.6354 15.3646-9.51042 15.9062-6.40625 17.0729-11.3021 17.7604-14.125 17.9687-14.875L26.6875-45.8125 34-45.8125 40.5625-22.625C42.2083-16.875 43.3958-11.4687 44.125-6.40625 44.7083-9.30208 45.4687-12.625 46.4062-16.375L53.5937-45.8125 59.6875-45.8125 47.125 0 41.2812 0 31.625-34.9062C30.8125-37.8229 30.3333-39.6146 30.1875-40.2812 29.7083-38.1771 29.2604-36.3854 28.8437-34.9062L19.125 0ZM62.8542-16.5937C62.8542-22.7396 64.5625-27.2917 67.9792-30.25 70.8333-32.7083 74.3125-33.9375 78.4167-33.9375 82.9792-33.9375 86.7083-32.4427 89.6042-29.4531 92.5-26.4635 93.9479-22.3333 93.9479-17.0625 93.9479-12.7917 93.3073-9.43229 92.026-6.98437 90.7448-4.53646 88.8802-2.63542 86.4323-1.28125 83.9844 0.0729166 81.3125 0.75 78.4167 0.75 73.7708 0.75 70.0156-0.739583 67.151-3.71875 64.2865-6.69792 62.8542-10.9896 62.8542-16.5937ZM68.6354-16.5937C68.6354-12.3437 69.5625-9.16146 71.4167-7.04687 73.2708-4.93229 75.6042-3.875 78.4167-3.875 81.2083-3.875 83.5312-4.9375 85.3854-7.0625 87.2396-9.1875 88.1667-12.4271 88.1667-16.7812 88.1667-20.8854 87.2344-23.9948 85.3698-26.1094 83.5052-28.224 81.1875-29.2812 78.4167-29.2812 75.6042-29.2812 73.2708-28.2292 71.4167-26.125 69.5625-24.0208 68.6354-20.8437 68.6354-16.5937ZM100.406 0 100.406-33.1875 105.469-33.1875 105.469-28.1562C106.76-30.5104 107.953-32.0625 109.047-32.8125 110.141-33.5625 111.344-33.9375 112.656-33.9375 114.552-33.9375 116.479-33.3333 118.438-32.125L116.5-26.9062C115.125-27.7187 113.75-28.125 112.375-28.125 111.146-28.125 110.042-27.7552 109.062-27.0156 108.083-26.276 107.385-25.25 106.969-23.9375 106.344-21.9375 106.031-19.75 106.031-17.375L106.031 0ZM121.698 0 121.698-45.8125 127.323-45.8125 127.323-19.6875 140.635-33.1875 147.917-33.1875 135.229-20.875 149.198 0 142.26 0 131.292-16.9687 127.323-13.1562 127.323 0ZM176.469-10.6875 182.281-9.96875C181.365-6.57292 179.667-3.9375 177.188-2.0625 174.708-0.1875 171.542 0.75 167.688 0.75 162.833 0.75 158.984-0.744792 156.141-3.73437 153.297-6.72396 151.875-10.9167 151.875-16.3125 151.875-21.8958 153.312-26.2292 156.188-29.3125 159.062-32.3958 162.792-33.9375 167.375-33.9375 171.812-33.9375 175.438-32.4271 178.25-29.4062 181.062-26.3854 182.469-22.1354 182.469-16.6562 182.469-16.3229 182.458-15.8229 182.438-15.1562L157.688-15.1562C157.896-11.5104 158.927-8.71875 160.781-6.78125 162.635-4.84375 164.948-3.875 167.719-3.875 169.781-3.875 171.542-4.41667 173-5.5 174.458-6.58333 175.615-8.3125 176.469-10.6875ZM158-19.7812 176.531-19.7812C176.281-22.5729 175.573-24.6667 174.406-26.0625 172.615-28.2292 170.292-29.3125 167.438-29.3125 164.854-29.3125 162.682-28.4479 160.922-26.7187 159.161-24.9896 158.188-22.6771 158-19.7812ZM189.208 0 189.208-33.1875 194.271-33.1875 194.271-28.1562C195.562-30.5104 196.755-32.0625 197.849-32.8125 198.943-33.5625 200.146-33.9375 201.458-33.9375 203.354-33.9375 205.281-33.3333 207.24-32.125L205.302-26.9062C203.927-27.7187 202.552-28.125 201.177-28.125 199.948-28.125 198.844-27.7552 197.865-27.0156 196.885-26.276 196.187-25.25 195.771-23.9375 195.146-21.9375 194.833-19.75 194.833-17.375L194.833 0ZM238.469-5.40625 238.469 0 208.188 0C208.146-1.35417 208.365-2.65625 208.844-3.90625 209.615-5.96875 210.849-8 212.547-10 214.245-12 216.698-14.3125 219.906-16.9375 224.885-21.0208 228.25-24.2552 230-26.6406 231.75-29.026 232.625-31.2812 232.625-33.4062 232.625-35.6354 231.828-37.5156 230.234-39.0469 228.641-40.5781 226.562-41.3437 224-41.3437 221.292-41.3437 219.125-40.5312 217.5-38.9062 215.875-37.2812 215.052-35.0312 215.031-32.1562L209.25-32.75C209.646-37.0625 211.135-40.349 213.719-42.6094 216.302-44.8698 219.771-46 224.125-46 228.521-46 232-44.7812 234.562-42.3437 237.125-39.9062 238.406-36.8854 238.406-33.2812 238.406-31.4479 238.031-29.6458 237.281-27.875 236.531-26.1042 235.286-24.2396 233.547-22.2812 231.807-20.3229 228.917-17.6354 224.875-14.2187 221.5-11.3854 219.333-9.46354 218.375-8.45312 217.417-7.44271 216.625-6.42708 216-5.40625Z" transform="matrix(0.83 0 0 0.83 60.521 380)"/><rect x="289.755" y="64.3534" width="259.79" height="78.8499" fill="#9DC3E6"/><rect x="330.425" y="64.3534" width="59.7602" height="79.6799" fill="#2E75B6"/><rect x="439.985" y="64.3534" width="59.7602" height="78.8499" fill="#2E75B6"/><path d="M549.545 51.9033 549.545 164.944" stroke="#FF0000" stroke-width="7" stroke-miterlimit="8" fill="none" fill-rule="evenodd"/><rect x="288.925" y="193.003" width="371.84" height="79.6799" fill="#9DC3E6"/><rect x="329.595" y="193.833" width="59.7602" height="78.8499" fill="#2E75B6"/><rect x="539.585" y="193.003" width="59.7601" height="79.6799" fill="#2E75B6"/><path d="M660.765 178.063 660.765 291.104" stroke="#FF0000" stroke-width="7" stroke-miterlimit="8" fill="none" fill-rule="evenodd"/><rect x="561.165" y="65.1833" width="259.79" height="79.6799" fill="#9DC3E6"/><rect x="602.665" y="66.0134" width="58.9301" height="78.8499" fill="#2E75B6"/><rect x="712.225" y="65.1833" width="58.9301" height="79.6799" fill="#2E75B6"/><path d="M820.955 52.7333 820.955 165.774" stroke="#FF0000" stroke-width="7" stroke-miterlimit="8" fill="none" fill-rule="evenodd"/><rect x="835.065" y="64.3534" width="259.79" height="78.8499" fill="#9DC3E6"/><rect x="875.735" y="64.3534" width="59.7601" height="79.6799" fill="#2E75B6"/><rect x="985.295" y="64.3534" width="59.7601" height="78.8499" fill="#2E75B6"/><path d="M1094.85 51.0732 1094.86 164.114" stroke="#FF0000" stroke-width="7" stroke-miterlimit="8" fill="none" fill-rule="evenodd"/><rect x="673.215" y="191.343" width="371.01" height="78.8499" fill="#9DC3E6"/><rect x="713.885" y="192.173" width="59.7601" height="78.8499" fill="#2E75B6"/><rect x="923.045" y="191.343" width="59.7601" height="78.8499" fill="#2E75B6"/><path d="M1044.23 176.403 1044.23 289.444" stroke="#FF0000" stroke-width="7" stroke-miterlimit="8" fill="none" fill-rule="evenodd"/><rect x="1057.51" y="190.513" width="37.3497" height="79.6799" fill="#9DC3E6"/><rect x="289.755" y="321.653" width="259.79" height="79.6799" fill="#9DC3E6"/><rect x="330.425" y="322.483" width="59.7602" height="78.8499" fill="#2E75B6"/><rect x="439.985" y="321.653" width="59.7602" height="79.6799" fill="#2E75B6"/><path d="M549.545 309.203 549.545 422.244" stroke="#FF0000" stroke-width="7" stroke-miterlimit="8" fill="none" fill-rule="evenodd"/><rect x="561.995" y="320.823" width="348.6" height="78.8499" fill="#9DC3E6"/><rect x="668.235" y="320.823" width="58.9301" height="78.8499" fill="#2E75B6"/><path d="M912.255 305.053 912.255 418.094" stroke="#FF0000" stroke-width="7" stroke-miterlimit="8" fill="none" fill-rule="evenodd"/><rect x="809.335" y="321.653" width="58.9298" height="78.8499" fill="#2E75B6"/><rect x="928.855" y="322.483" width="168.49" height="78.8499" fill="#9DC3E6"/><rect x="969.525" y="322.483" width="59.7601" height="78.8499" fill="#2E75B6"/><g clip-path="url(#clip64)"><g clip-path="url(#clip65)"><g clip-path="url(#clip66)"><path d="M99.8766 23.655C99.8766 29.4613 83.4022 34.1683 63.08 34.1683 42.7577 34.1683 26.2833 29.4613 26.2833 23.655 26.2833 17.8486 42.7577 13.1417 63.08 13.1417 83.4022 13.1417 99.8766 17.8486 99.8766 23.655Z" transform="matrix(1.11184 0 0 1 1326.42 190.513)"/><path d="M89.3633 49.9383C87.7863 49.9383 86.735 48.887 86.735 47.31 86.735 45.733 87.7863 44.6816 89.3633 44.6816 90.9403 44.6816 91.9916 45.733 91.9916 47.31 91.9916 48.887 90.9403 49.9383 89.3633 49.9383ZM63.08 39.425C42.8418 39.425 26.2833 34.694 26.2833 28.9117L26.2833 49.9383C26.2833 55.7206 42.8418 60.4516 63.08 60.4516 83.3181 60.4516 99.8766 55.7206 99.8766 49.9383L99.8766 28.9117C99.8766 34.694 83.3181 39.425 63.08 39.425Z" transform="matrix(1.11184 0 0 1 1326.42 190.513)"/><path d="M89.3633 76.2216C87.7863 76.2216 86.735 75.1703 86.735 73.5933 86.735 72.0163 87.7863 70.965 89.3633 70.965 90.9403 70.965 91.9916 72.0163 91.9916 73.5933 91.9916 75.1703 90.9403 76.2216 89.3633 76.2216ZM63.08 65.7083C42.8418 65.7083 26.2833 60.9773 26.2833 55.195L26.2833 76.2216C26.2833 82.004 42.8418 86.735 63.08 86.735 83.3181 86.735 99.8766 82.004 99.8766 76.2216L99.8766 55.195C99.8766 60.9773 83.3181 65.7083 63.08 65.7083Z" transform="matrix(1.11184 0 0 1 1326.42 190.513)"/><path d="M89.3633 102.505C87.7863 102.505 86.735 101.454 86.735 99.8766 86.735 98.2996 87.7863 97.2483 89.3633 97.2483 90.9403 97.2483 91.9916 98.2996 91.9916 99.8766 91.9916 101.454 90.9403 102.505 89.3633 102.505ZM63.08 91.9916C42.8418 91.9916 26.2833 87.2606 26.2833 81.4783L26.2833 102.505C26.2833 108.287 42.8418 113.018 63.08 113.018 83.3181 113.018 99.8766 108.287 99.8766 102.505L99.8766 81.4783C99.8766 87.2606 83.3181 91.9916 63.08 91.9916Z" transform="matrix(1.11184 0 0 1 1326.42 190.513)"/></g></g></g><g clip-path="url(#clip67)"><g clip-path="url(#clip68)"><g clip-path="url(#clip69)"><path d="M128.691 67.1432C129.111 67.1432 95.1196 33.5716 95.1196 33.5716L95.1196 54.5539C72.8784 64.6254 5.59527 54.5539 5.59527 54.5539 5.59527 54.5539 53.2949 91.063 95.1196 86.7267L95.1196 100.715 128.691 67.1432Z" transform="matrix(1.11089 0.0625532 -0.05622 0.998418 -498.803 -818.403)"/></g></g></g></g></g><g clip-path="url(#clip70)" filter="url(#fx10)" transform="translate(2426 1196)"><g clip-path="url(#clip71)"><rect x="20.1233" y="20.4651" width="17.42" height="5.07" stroke="#A9D18E" stroke-linejoin="bevel" stroke-miterlimit="10" fill="#C7E8AC"/></g></g><rect x="1565.5" y="965.5" width="1742" height="507" stroke="#A9D18E" stroke-width="11.4583" stroke-linejoin="bevel" stroke-miterlimit="10" fill="#C7E8AC"/><text font-family="Arial,Arial_MSFontService,sans-serif" font-weight="400" font-size="64" transform="matrix(1 0 0 1 1608.81 1092)">Worker0</text><text font-family="Arial,Arial_MSFontService,sans-serif" font-weight="400" font-size="64" transform="matrix(1 0 0 1 1608.81 1236)">Worker1</text><text font-family="Arial,Arial_MSFontService,sans-serif" font-weight="400" font-size="64" transform="matrix(1 0 0 1 1608.81 1393)">Worker2</text><g clip-path="url(#clip72)" filter="url(#fx11)" transform="translate(2038 1040)"><g clip-path="url(#clip73)"><rect x="20.2683" y="20.025" width="3.13" height="0.949999" fill="#9DC3E6"/></g></g><rect x="1885" y="1013" width="313" height="94.9998" fill="#9DC3E6"/><g clip-path="url(#clip74)" filter="url(#fx12)" transform="translate(1968 1041)"><g clip-path="url(#clip75)"><rect x="19.9734" y="19.52" width="0.720001" height="0.959999" fill="#2E75B6"/></g></g><rect x="1934" y="1013" width="72.0002" height="95.9999" fill="#2E75B6"/><g clip-path="url(#clip76)" filter="url(#fx13)" transform="translate(2100 1040)"><g clip-path="url(#clip77)"><rect x="19.9734" y="20.025" width="0.720001" height="0.949999" fill="#2E75B6"/></g></g><rect x="2066" y="1013" width="72.0002" height="94.9998" fill="#2E75B6"/><path d="M2198 998 2198 1134.19" stroke="#FF0000" stroke-width="8.02083" stroke-miterlimit="8" fill="none" fill-rule="evenodd"/><g clip-path="url(#clip78)" filter="url(#fx14)" transform="translate(2104 1196)"><g clip-path="url(#clip79)"><rect x="20.0933" y="19.52" width="4.48" height="0.959999" fill="#9DC3E6"/></g></g><rect x="1884" y="1168" width="448" height="95.9999" fill="#9DC3E6"/><g clip-path="url(#clip80)" filter="url(#fx15)" transform="translate(1967 1196)"><g clip-path="url(#clip81)"><rect x="19.9734" y="20.025" width="0.720001" height="0.949999" fill="#2E75B6"/></g></g><rect x="1933" y="1169" width="72.0002" height="94.9999" fill="#2E75B6"/><g clip-path="url(#clip82)" filter="url(#fx16)" transform="translate(2220 1196)"><g clip-path="url(#clip83)"><rect x="19.9734" y="19.52" width="0.720001" height="0.959999" fill="#2E75B6"/></g></g><rect x="2186" y="1168" width="72.0002" height="95.9999" fill="#2E75B6"/><path d="M2332 1150 2332 1286.19" stroke="#FF0000" stroke-width="8.02083" stroke-miterlimit="8" fill="none" fill-rule="evenodd"/><g clip-path="url(#clip84)" filter="url(#fx17)" transform="translate(2365 1042)"><g clip-path="url(#clip85)"><rect x="20.2683" y="19.52" width="3.13" height="0.959999" fill="#9DC3E6"/></g></g><rect x="2212" y="1014" width="313" height="95.9999" fill="#9DC3E6"/><g clip-path="url(#clip86)" filter="url(#fx18)" transform="translate(2295 1042)"><g clip-path="url(#clip87)"><rect x="20.4783" y="20.025" width="0.710001" height="0.949999" fill="#2E75B6"/></g></g><rect x="2262" y="1015" width="71.0002" height="94.9999" fill="#2E75B6"/><g clip-path="url(#clip88)" filter="url(#fx19)" transform="translate(2427 1042)"><g clip-path="url(#clip89)"><rect x="20.4783" y="19.52" width="0.710001" height="0.959999" fill="#2E75B6"/></g></g><rect x="2394" y="1014" width="71.0002" height="95.9999" fill="#2E75B6"/><path d="M2525 999 2525 1135.19" stroke="#FF0000" stroke-width="8.02083" stroke-miterlimit="8" fill="none" fill-rule="evenodd"/><g clip-path="url(#clip90)" filter="url(#fx20)" transform="translate(2695 1040)"><g clip-path="url(#clip91)"><rect x="20.2683" y="20.025" width="3.13" height="0.949999" fill="#9DC3E6"/></g></g><rect x="2542" y="1013" width="313" height="94.9998" fill="#9DC3E6"/><g clip-path="url(#clip92)" filter="url(#fx21)" transform="translate(2625 1041)"><g clip-path="url(#clip93)"><rect x="19.9731" y="19.52" width="0.720001" height="0.959999" fill="#2E75B6"/></g></g><rect x="2591" y="1013" width="72.0002" height="95.9999" fill="#2E75B6"/><g clip-path="url(#clip94)" filter="url(#fx22)" transform="translate(2757 1040)"><g clip-path="url(#clip95)"><rect x="19.9731" y="20.025" width="0.720001" height="0.949999" fill="#2E75B6"/></g></g><rect x="2723" y="1013" width="72.0002" height="94.9998" fill="#2E75B6"/><path d="M2855 997 2855 1133.19" stroke="#FF0000" stroke-width="8.02083" stroke-miterlimit="8" fill="none" fill-rule="evenodd"/><g clip-path="url(#clip96)" filter="url(#fx23)" transform="translate(2567 1193)"><g clip-path="url(#clip97)"><rect x="19.5984" y="20.0249" width="4.47" height="0.949999" fill="#9DC3E6"/></g></g><rect x="2347" y="1166" width="447" height="94.9999" fill="#9DC3E6"/><g clip-path="url(#clip98)" filter="url(#fx24)" transform="translate(2430 1194)"><g clip-path="url(#clip99)"><rect x="19.9734" y="20.025" width="0.720001" height="0.949999" fill="#2E75B6"/></g></g><rect x="2396" y="1167" width="72.0002" height="94.9999" fill="#2E75B6"/><g clip-path="url(#clip100)" filter="url(#fx25)" transform="translate(2682 1193)"><g clip-path="url(#clip101)"><rect x="19.9734" y="20.0249" width="0.720001" height="0.949999" fill="#2E75B6"/></g></g><rect x="2648" y="1166" width="72.0002" height="94.9999" fill="#2E75B6"/><path d="M2794 1148 2794 1284.19" stroke="#FF0000" stroke-width="8.02083" stroke-miterlimit="8" fill="none" fill-rule="evenodd"/><g clip-path="url(#clip102)" filter="url(#fx26)" transform="translate(2831 1193)"><g clip-path="url(#clip103)"><rect x="19.6084" y="19.5199" width="0.449997" height="0.959999" fill="#9DC3E6"/></g></g><rect x="2810" y="1165" width="44.9998" height="95.9999" fill="#9DC3E6"/><g clip-path="url(#clip104)" filter="url(#fx27)" transform="translate(2038 1351)"><g clip-path="url(#clip105)"><rect x="20.2683" y="19.52" width="3.13" height="0.959999" fill="#9DC3E6"/></g></g><rect x="1885" y="1323" width="313" height="95.9999" fill="#9DC3E6"/><g clip-path="url(#clip106)" filter="url(#fx28)" transform="translate(1968 1351)"><g clip-path="url(#clip107)"><rect x="19.9734" y="20.025" width="0.720001" height="0.949999" fill="#2E75B6"/></g></g><rect x="1934" y="1324" width="72.0002" height="94.9999" fill="#2E75B6"/><g clip-path="url(#clip108)" filter="url(#fx29)" transform="translate(2100 1351)"><g clip-path="url(#clip109)"><rect x="19.9734" y="19.52" width="0.720001" height="0.959999" fill="#2E75B6"/></g></g><rect x="2066" y="1323" width="72.0002" height="95.9999" fill="#2E75B6"/><path d="M2198 1308 2198 1444.19" stroke="#FF0000" stroke-width="8.02083" stroke-miterlimit="8" fill="none" fill-rule="evenodd"/><g clip-path="url(#clip110)" filter="url(#fx30)" transform="translate(2419 1349)"><g clip-path="url(#clip111)"><rect x="20.2334" y="20.025" width="4.2" height="0.949999" fill="#9DC3E6"/></g></g><rect x="2213" y="1322" width="420" height="94.9999" fill="#9DC3E6"/><g clip-path="url(#clip112)" filter="url(#fx31)" transform="translate(2374 1349)"><g clip-path="url(#clip113)"><rect x="20.4783" y="20.025" width="0.710001" height="0.949999" fill="#2E75B6"/></g></g><rect x="2341" y="1322" width="71.0002" height="94.9999" fill="#2E75B6"/><path d="M2635 1303 2635 1439.19" stroke="#FF0000" stroke-width="8.02083" stroke-miterlimit="8" fill="none" fill-rule="evenodd"/><g clip-path="url(#clip114)" filter="url(#fx32)" transform="translate(2544 1350)"><g clip-path="url(#clip115)"><rect x="20.4783" y="20.025" width="0.709997" height="0.949999" fill="#2E75B6"/></g></g><rect x="2511" y="1323" width="70.9998" height="94.9999" fill="#2E75B6"/><g clip-path="url(#clip116)" filter="url(#fx33)" transform="translate(2754 1351)"><g clip-path="url(#clip117)"><rect x="19.8184" y="20.025" width="2.03" height="0.949999" fill="#9DC3E6"/></g></g><rect x="2655" y="1324" width="203" height="94.9999" fill="#9DC3E6"/><g clip-path="url(#clip118)" filter="url(#fx34)" transform="translate(2738 1351)"><g clip-path="url(#clip119)"><rect x="19.9734" y="20.025" width="0.720001" height="0.949999" fill="#2E75B6"/></g></g><rect x="2704" y="1324" width="72.0002" height="94.9999" fill="#2E75B6"/><g clip-path="url(#clip120)"><g clip-path="url(#clip121)"><g clip-path="url(#clip122)"><path d="M120.333 28.5C120.333 35.4956 100.485 41.1666 76 41.1666 51.5154 41.1666 31.6667 35.4956 31.6667 28.5 31.6667 21.5044 51.5154 15.8333 76 15.8333 100.485 15.8333 120.333 21.5044 120.333 28.5Z" transform="matrix(1.11184 0 0 1 3134 1165)"/><path d="M107.667 60.1666C105.767 60.1666 104.5 58.9 104.5 57 104.5 55.1 105.767 53.8333 107.667 53.8333 109.567 53.8333 110.833 55.1 110.833 57 110.833 58.9 109.567 60.1666 107.667 60.1666ZM76 47.5C51.6166 47.5 31.6667 41.8 31.6667 34.8333L31.6667 60.1666C31.6667 67.1333 51.6166 72.8333 76 72.8333 100.383 72.8333 120.333 67.1333 120.333 60.1666L120.333 34.8333C120.333 41.8 100.383 47.5 76 47.5Z" transform="matrix(1.11184 0 0 1 3134 1165)"/><path d="M107.667 91.8333C105.767 91.8333 104.5 90.5666 104.5 88.6666 104.5 86.7666 105.767 85.5 107.667 85.5 109.567 85.5 110.833 86.7666 110.833 88.6666 110.833 90.5666 109.567 91.8333 107.667 91.8333ZM76 79.1666C51.6166 79.1666 31.6667 73.4666 31.6667 66.5L31.6667 91.8333C31.6667 98.8 51.6166 104.5 76 104.5 100.383 104.5 120.333 98.8 120.333 91.8333L120.333 66.5C120.333 73.4666 100.383 79.1666 76 79.1666Z" transform="matrix(1.11184 0 0 1 3134 1165)"/><path d="M107.667 123.5C105.767 123.5 104.5 122.233 104.5 120.333 104.5 118.433 105.767 117.167 107.667 117.167 109.567 117.167 110.833 118.433 110.833 120.333 110.833 122.233 109.567 123.5 107.667 123.5ZM76 110.833C51.6166 110.833 31.6667 105.133 31.6667 98.1666L31.6667 123.5C31.6667 130.467 51.6166 136.167 76 136.167 100.383 136.167 120.333 130.467 120.333 123.5L120.333 98.1666C120.333 105.133 100.383 110.833 76 110.833Z" transform="matrix(1.11184 0 0 1 3134 1165)"/></g></g></g><g clip-path="url(#clip123)"><g clip-path="url(#clip124)"><g clip-path="url(#clip125)"><path d="M155.05 80.8955C155.555 80.8955 114.602 40.4477 114.602 40.4477L114.602 65.7276C87.8053 77.8619 6.74129 65.7276 6.74129 65.7276 6.74129 65.7276 64.2108 109.714 114.602 104.49L114.602 121.343 155.05 80.8955Z" transform="matrix(1.11089 0.0625532 -0.05622 0.998418 2969.87 1156.67)"/></g></g></g><text font-family="Arial Narrow,Arial Narrow_MSFontService,sans-serif" font-weight="700" font-stretch="condensed" font-size="83" transform="matrix(1 0 0 1 2871.26 1074)"></text><text font-family="Arial Narrow,Arial Narrow_MSFontService,sans-serif" font-weight="700" font-stretch="condensed" font-size="83" transform="matrix(1 0 0 1 2875.87 1222)"></text><text font-family="Arial Narrow,Arial Narrow_MSFontService,sans-serif" font-weight="700" font-stretch="condensed" font-size="83" transform="matrix(1 0 0 1 2878.63 1381)"></text><g clip-path="url(#clip126)" filter="url(#fx35)" transform="translate(3679 1654)"><g clip-path="url(#clip127)"><path d="M20.2185 21.525C20.2185 20.9092 20.7177 20.41 21.3335 20.41L21.3335 20.41C21.9493 20.41 22.4485 20.9092 22.4485 21.525L22.4485 27.475C22.4485 28.0908 21.9493 28.59 21.3335 28.59L21.3335 28.59C20.7177 28.59 20.2185 28.0908 20.2185 27.475Z" stroke="#000000" stroke-linejoin="bevel" stroke-miterlimit="10" fill="none" fill-rule="evenodd"/></g></g><path d="M3570.5 1381C3570.5 1319.42 3620.42 1269.5 3682 1269.5L3682 1269.5C3743.58 1269.5 3793.5 1319.42 3793.5 1381L3793.5 1976C3793.5 2037.58 3743.58 2087.5 3682 2087.5L3682 2087.5C3620.42 2087.5 3570.5 2037.58 3570.5 1976Z" stroke="#000000" stroke-width="4.58333" stroke-linejoin="bevel" stroke-miterlimit="10" fill="none" fill-rule="evenodd"/><text font-family="Times New Roman,Times New Roman_MSFontService,sans-serif" font-weight="700" font-size="83" transform="matrix(6.12323e-17 1 -1 6.12323e-17 3660.46 1426)">Stopper</text><text font-family="Times New Roman,Times New Roman_MSFontService,sans-serif" font-weight="400" font-size="83" transform="matrix(6.12323e-17 1 -1 6.12323e-17 3660.46 1706)">.stop()</text><path d="M223.301 737.013 219.426 737.7 220.727 737.26 216.852 739.26 217.723 738.676 213.911 741.926 214.414 741.424 210.601 745.862 210.932 745.427 207.12 751.115 207.328 750.773 203.578 757.585 203.719 757.306 200.032 765.244 200.116 765.05 196.429 774.05 196.505 773.851 192.942 783.851 192.983 783.732 189.42 794.669 189.467 794.518 186.029 806.456 186.057 806.355 182.682 819.168 182.708 819.063 179.458 832.688 179.475 832.613 176.288 847.051 176.306 846.965 173.244 862.215 173.257 862.143 170.32 878.081 170.328 878.034 167.453 894.596 167.466 894.518 164.779 911.768 164.787 911.713 162.224 929.588 162.231 929.54 159.793 947.915 159.799 947.868 157.487 966.806 157.493 966.75 155.368 986.125 155.374 986.073 153.436 1005.82 153.44 1005.78 151.627 1025.97 151.634 1025.89 148.634 1067.21 148.64 1067.11 146.452 1109.49 146.456 1109.4 145.081 1152.4 145.083 1152.3 144.583 1195.68 144.583 1195.57 144.833 1217.26 144.83 1217.14 145.643 1238.83 145.637 1238.72 146.95 1260.28 146.943 1260.19 148.693 1281.63 148.683 1281.52 150.933 1302.83 150.92 1302.72 153.67 1323.78 153.657 1323.69 156.782 1344.44 156.766 1344.34 160.328 1364.91 160.308 1364.79 164.308 1384.92 164.291 1384.84 168.603 1404.65 168.576 1404.53 173.326 1423.91 173.302 1423.81 178.364 1442.69 178.334 1442.58 183.771 1461.02 183.737 1460.9 189.487 1478.72 189.449 1478.61 195.511 1495.86 195.472 1495.75 201.785 1512.37 201.738 1512.26 208.301 1528.19 208.238 1528.05 215.113 1543.23 215.055 1543.11 222.117 1557.55 222.042 1557.4 229.355 1571.09 229.263 1570.93 236.763 1583.68 236.666 1583.52 244.353 1595.46 244.219 1595.26 252.094 1606.2 251.954 1606.01 259.954 1616.01 259.765 1615.79 267.953 1624.79 267.74 1624.57 275.99 1632.51 275.347 1631.99 287.837 1640.28 282.768 1647.92 269.933 1639.4 261.275 1631.07 252.887 1621.85 244.723 1611.65 236.711 1600.52 228.909 1588.4 221.314 1575.49 213.919 1561.65 206.79 1547.08 199.854 1531.76 193.238 1515.69 186.882 1498.95 180.781 1481.59 174.995 1463.67 169.525 1445.12 164.435 1426.14 159.659 1406.66 155.325 1386.75 151.306 1366.53 147.725 1345.86 144.586 1325.01 141.823 1303.85 139.561 1282.43 137.803 1260.89 136.484 1239.23 135.668 1217.42 135.416 1195.63 135.917 1152.15 137.295 1109.06 139.488 1066.59 142.494 1025.19 144.312 1004.95 146.254 985.151 148.384 965.722 150.703 946.733 153.147 928.311 155.717 910.385 158.415 893.068 161.301 876.443 164.249 860.446 167.327 845.117 170.533 830.599 173.804 816.884 177.206 803.97 180.68 791.906 184.286 780.833 187.906 770.674 191.674 761.477 195.472 753.302 199.394 746.177 203.47 740.096 207.693 735.181 212.178 731.357 217.14 728.796 221.699 727.987ZM289.111 1621.05 323.893 1658.68 272.919 1663.92Z"/><g clip-path="url(#clip128)" filter="url(#fx36)" transform="translate(2429 2077)"><g clip-path="url(#clip129)"><rect x="20.0435" y="20.085" width="17.58" height="5.83" stroke="#A9D18E" stroke-linejoin="bevel" stroke-miterlimit="10" fill="#C7E8AC"/></g></g><rect x="1560.5" y="1808.5" width="1758" height="583" stroke="#A9D18E" stroke-width="11.4583" stroke-linejoin="bevel" stroke-miterlimit="10" fill="#C7E8AC"/><g clip-path="url(#clip130)" filter="url(#fx37)" transform="translate(2884 2058)"><g clip-path="url(#clip131)"><path d="M20.2288 21.0004C20.2288 20.3183 20.7817 19.7654 21.4638 19.7654L27.2038 19.7654C27.8858 19.7654 28.4388 20.3183 28.4388 21.0004L28.4388 21.0004C28.4388 21.6825 27.8858 22.2354 27.2038 22.2354L21.4638 22.2354C20.7817 22.2354 20.2288 21.6824 20.2288 21.0004Z" stroke="#000000" stroke-linejoin="bevel" stroke-miterlimit="10" fill="#FFFFFF" fill-rule="evenodd"/></g></g><path d="M2479.5 2079C2479.5 2010.79 2534.79 1955.5 2603 1955.5L3177 1955.5C3245.21 1955.5 3300.5 2010.79 3300.5 2079L3300.5 2079C3300.5 2147.21 3245.21 2202.5 3177 2202.5L2603 2202.5C2534.79 2202.5 2479.5 2147.21 2479.5 2079Z" stroke="#000000" stroke-width="4.58333" stroke-linejoin="bevel" stroke-miterlimit="10" fill="#FFFFFF" fill-rule="evenodd"/><g clip-path="url(#clip132)" filter="url(#fx38)" transform="translate(1956 2052)"><g clip-path="url(#clip133)"><path d="M19.9238 21.0004C19.9238 20.3183 20.4768 19.7654 21.1588 19.7654L26.5088 19.7654C27.1909 19.7654 27.7438 20.3183 27.7438 21.0004L27.7438 21.0004C27.7438 21.6825 27.1909 22.2354 26.5088 22.2354L21.1588 22.2354C20.4768 22.2354 19.9238 21.6825 19.9238 21.0004Z" stroke="#000000" stroke-linejoin="bevel" stroke-miterlimit="10" fill="#FFFFFF" fill-rule="evenodd"/></g></g><path d="M1570.5 2073C1570.5 2004.79 1625.79 1949.5 1694 1949.5L2229 1949.5C2297.21 1949.5 2352.5 2004.79 2352.5 2073L2352.5 2073C2352.5 2141.21 2297.21 2196.5 2229 2196.5L1694 2196.5C1625.79 2196.5 1570.5 2141.21 1570.5 2073Z" stroke="#000000" stroke-width="4.58333" stroke-linejoin="bevel" stroke-miterlimit="10" fill="#FFFFFF" fill-rule="evenodd"/><text font-family="Times New Roman,Times New Roman_MSFontService,sans-serif" font-weight="700" font-size="83" transform="matrix(1 0 0 1 1665.94 2101)">Trainer</text><text font-family="Times New Roman,Times New Roman_MSFontService,sans-serif" font-weight="400" font-size="83" transform="matrix(1 0 0 1 1940.94 2101)">.optimize()</text><text font-family="Times New Roman,Times New Roman_MSFontService,sans-serif" font-weight="700" font-size="83" transform="matrix(1 0 0 1 2518.73 2101)">Trainer</text><text font-family="Times New Roman,Times New Roman_MSFontService,sans-serif" font-weight="400" font-size="83" transform="matrix(1 0 0 1 2793.73 2101)">.push_policy</text><text font-family="Times New Roman,Times New Roman_MSFontService,sans-serif" font-weight="400" font-size="83" transform="matrix(1 0 0 1 3217.69 2101)">()</text><path d="M0.52176 4.55354-5.47824 5.24104-4.55062 5.03563-10.5506 7.03563-9.81704 6.71759-15.817 9.96759-15.2316 9.59028-21.1691 14.0903-20.7496 13.7305-26.6246 19.418-26.3258 19.0999-32.1383 25.9124-31.917 25.6316-37.7295 33.6316-37.563 33.386-43.2505 42.386-43.1196 42.1655-48.6821 52.1655-48.588 51.9872-54.088 62.9872-54.0083 62.8192-59.3833 74.7568-59.3113 74.5879-64.4988 87.4629-64.4577 87.3572-69.5827 101.045-69.5363 100.915-74.4738 115.415-74.4416 115.317-79.2541 130.567-79.2187 130.449-83.7812 146.386-83.7581 146.303-88.1956 162.99-88.1701 162.89-92.3576 180.203-92.3398 180.126-96.3398 198.001-96.3241 197.928-100.137 216.366-100.121 216.285-103.683 235.222-103.667 235.131-106.917 254.568-106.908 254.51-109.97 274.385-109.96 274.318-112.773 294.568-112.757 294.446-117.382 335.883-117.37 335.752-120.87 378.189-120.86 378.038-122.985 421.163-122.981 421.056-123.543 442.806-123.542 442.727-123.729 464.477-123.729 464.398-123.542 486.148-123.543 486.069-122.981 507.819-122.985 507.699-120.735 550.824-120.746 550.666-117.059 593.103-117.073 592.964-112.198 634.402-112.214 634.28-109.277 654.529-109.287 654.459-106.1 674.272-106.112 674.202-102.674 693.639-102.691 693.547-98.9415 712.485-98.9577 712.406-94.9577 730.906-94.975 730.83-90.7875 748.705-90.8102 748.612-86.3727 765.924-86.3969 765.834-81.7719 782.459-81.7984 782.367-76.9859 798.367-77.0251 798.243-71.9626 813.493-71.997 813.394-66.8095 827.894-66.8522 827.779-61.5397 841.467-61.6008 841.317-56.1008 854.13-56.1664 853.984-50.5414 865.921-50.6351 865.734-44.8226 876.734-44.9232 876.553-39.0482 886.553-39.1742 886.351-33.2367 895.351-33.4201 895.093-27.3576 903.03-27.5778 902.764-21.4528 909.639-21.7733 909.313-15.8122 914.792-22.0156 921.541-28.1451 915.907-34.5373 908.732-40.8011 900.531-46.8914 891.299-52.8791 881.108-58.7889 869.924-64.4927 857.819-70.0561 844.859-75.4199 831.039-80.6458 816.432-85.7454 801.07-90.5904 784.962-95.2407 768.246-99.7016 750.842-103.909 732.882-107.926 714.305-111.693 695.282-115.145 675.763-118.343 655.881-121.295 635.534-126.185 593.966-129.885 551.38-132.143 508.116-132.708 486.267-132.896 464.438-132.708 442.608-132.143 420.765-130.012 377.511-126.5 334.932-121.861 293.368-119.035 273.023-115.963 253.086-112.7 233.573-109.122 214.55-105.293 196.035-101.277 178.086-97.0677 160.685-92.6058 143.905-88.0144 127.867-83.1678 112.509-78.1915 97.8949-73.0224 84.0897-67.7794 71.077-62.3286 58.971-56.7419 47.7976-51.068 37.5974-45.2327 28.3635-39.2278 20.0987-33.1574 12.9839-26.9265 6.95193-20.4901 2.07376-13.8301-1.53373-6.99627-3.81167-0.52176-4.55354ZM-18.9139 918.167-26.9665 889.946 6.44951 928.794-44.6792 932.218Z" transform="matrix(-6.12323e-17 -1 -1 6.12323e-17 2890.29 2202.95)"/><path d="M2350 2065.84 2454.47 2065.84 2454.47 2076.16 2350 2076.16ZM2454.47 2071 2433.85 2045.22 2485.41 2071 2433.85 2096.78Z"/><path d="M492.5 2230.5C445.832 2230.5 407.999 2224.2 407.999 2216.42L408.001 1672.08C408.001 1664.3 370.168 1658 323.5 1658 370.168 1658 408.001 1651.7 408.001 1643.92L408.001 1099.58C408.001 1091.8 445.833 1085.5 492.501 1085.5" stroke="#000000" stroke-width="9.16667" stroke-miterlimit="8" fill="none" fill-rule="evenodd"/><path d="M0.108893-4.58204 268.599 1.79868 268.381 10.9628-0.108893 4.58204ZM264.452-16.6384 309.728 7.36076 263.363 29.182Z" transform="matrix(1 0 0 -1 1261.5 1155.86)"/><path d="M0.0756236-4.58271 275.636-0.0354348 275.484 9.12998-0.0756236 4.58271ZM271.355-18.4419 316.804 5.22789 270.599 27.3852Z" transform="matrix(1 0 0 -1 1237.5 2169.73)"/><path d="M3358.5 1049.5C3394.67 1049.5 3424 1054.39 3424 1060.42L3424 1660.08C3424 1666.11 3453.33 1671 3489.5 1671 3453.33 1671 3424 1675.89 3424 1681.92L3424 2281.58C3424 2287.61 3394.67 2292.5 3358.5 2292.5" stroke="#000000" stroke-width="9.16667" stroke-miterlimit="8" fill="none" fill-rule="evenodd"/><g clip-path="url(#clip134)" filter="url(#fx39)" transform="translate(3664 281)"><g clip-path="url(#clip135)"><rect x="19.5234" y="19.565" width="8.62" height="2.87" stroke="#000000" stroke-linejoin="bevel" stroke-miterlimit="10" fill="#FFFFFF"/></g></g><rect x="3238.5" y="158.5" width="862" height="287" stroke="#000000" stroke-width="4.58333" stroke-linejoin="bevel" stroke-miterlimit="10" fill="#FFFFFF"/><text font-family="Times New Roman,Times New Roman_MSFontService,sans-serif" font-weight="700" font-size="92" transform="matrix(1 0 0 1 3299.85 268)">Evaluate_manager</text><text font-family="Times New Roman,Times New Roman_MSFontService,sans-serif" font-weight="400" font-size="92" transform="matrix(1 0 0 1 3550.79 378)">.eval()</text><path d="M3237.94 311.698 3166.89 309.375 3167.41 293.342 3238.47 295.665ZM3174.38 325.671 3095 299 3175.95 277.571Z"/><path d="M0.717369-4.52684 12.777-2.61575 25.2382 3.10413 37.3768 12.2578 49.1365 24.6672 60.6699 40.1092 71.9876 58.4845 83.1211 79.8026 94.0272 103.821 104.785 130.558 115.275 159.831 125.568 191.524 135.538 225.636 145.314 261.919 154.774 300.388 163.855 340.843 172.682 383.227 181.134 427.362 189.145 473.241 196.779 520.611 204.038 569.483 210.796 619.731 217.053 671.221 222.871 723.772 228.19 777.401 237.072 887.18 243.703 999.657 247.832 1113.95 248.695 1187.81 239.529 1187.91 238.667 1114.12 238.67 1114.23 234.545 1000.04 234.55 1000.14 227.925 887.77 227.932 887.87 219.057 778.182 219.064 778.265 213.752 724.702 213.757 724.754 207.945 672.254 207.95 672.303 201.7 620.865 201.708 620.923 194.958 570.736 194.966 570.798 187.716 521.986 187.725 522.042 180.1 474.729 180.11 474.788 172.11 428.976 172.123 429.049 163.686 384.987 163.7 385.06 154.888 342.747 154.903 342.816 145.84 302.441 145.862 302.532 136.424 264.157 136.449 264.255 126.699 228.067 126.726 228.161 116.788 194.161 116.828 194.291 106.578 162.728 106.623 162.859 96.1854 133.734 96.2479 133.898 85.5604 107.336 85.6392 107.52 74.8267 83.7074 74.9373 83.9342 63.9373 62.8717 64.0975 63.1536 52.9725 45.0911 53.2029 45.4302 41.9529 30.3677 42.2982 30.7776 30.9857 18.8401 31.5529 19.347 20.1154 10.722 20.963 11.228 9.52548 5.97797 10.7201 6.33934-0.717369 4.52684ZM266.974 1183.01 244.594 1229.11 221.144 1183.54Z" transform="matrix(1 0 0 -1 3793.5 1678.61)"/><text font-family="Arial Narrow,Arial Narrow_MSFontService,sans-serif" font-weight="700" font-stretch="condensed" font-size="83" transform="matrix(1 0 0 1 1689.01 1621)">Collected </text><text font-family="Arial Narrow,Arial Narrow_MSFontService,sans-serif" font-weight="700" font-stretch="condensed" font-size="83" transform="matrix(1 0 0 1 1689.01 1720)">Episodes</text><g clip-path="url(#clip136)" filter="url(#fx40)" transform="translate(2355 799)"><g clip-path="url(#clip137)"><rect x="19.9731" y="20.025" width="0.719997" height="0.949999" fill="#2E75B6"/></g></g><rect x="2321" y="772" width="71.9998" height="94.9999" fill="#2E75B6"/><g clip-path="url(#clip138)" filter="url(#fx41)" transform="translate(1741 796)"><g clip-path="url(#clip139)"><rect x="19.9634" y="20.0249" width="0.74" height="0.949999" fill="#9DC3E6"/></g></g><rect x="1706" y="769" width="73.9999" height="94.9999" fill="#9DC3E6"/><text font-family="Arial,Arial_MSFontService,sans-serif" font-weight="700" font-size="55" transform="matrix(1 0 0 1 1794.45 836)">Environment step</text><text font-family="Arial,Arial_MSFontService,sans-serif" font-weight="700" font-size="55" transform="matrix(1 0 0 1 2406.42 835)">Policy step</text><path d="M2775 746 2775 882.194" stroke="#FF0000" stroke-width="8.02083" stroke-miterlimit="8" fill="none" fill-rule="evenodd"/><text font-family="Arial,Arial_MSFontService,sans-serif" font-weight="700" font-size="55" transform="matrix(1 0 0 1 2804.56 838)">terminal</text><g clip-path="url(#clip140)" filter="url(#fx42)" transform="translate(2390 1616)"><g clip-path="url(#clip141)"><path d="M20.4282 21.4999C20.4282 20.9035 20.9118 20.4199 21.5082 20.4199L27.1582 20.4199C27.7547 20.4199 28.2382 20.9035 28.2382 21.4999L28.2382 21.4999C28.2382 22.0964 27.7547 22.5799 27.1582 22.5799L21.5082 22.5799C20.9118 22.5799 20.4282 22.0964 20.4282 21.4999Z" stroke="#000000" stroke-linejoin="bevel" stroke-miterlimit="10" fill="#FFFFFF" fill-rule="evenodd"/></g></g><path d="M2005.5 1637.5C2005.5 1577.85 2053.85 1529.5 2113.5 1529.5L2678.5 1529.5C2738.15 1529.5 2786.5 1577.85 2786.5 1637.5L2786.5 1637.5C2786.5 1697.15 2738.15 1745.5 2678.5 1745.5L2113.5 1745.5C2053.85 1745.5 2005.5 1697.15 2005.5 1637.5Z" stroke="#000000" stroke-width="4.58333" stroke-linejoin="bevel" stroke-miterlimit="10" fill="#FFFFFF" fill-rule="evenodd"/><text font-family="Times New Roman,Times New Roman_MSFontService,sans-serif" font-weight="700" font-size="83" transform="matrix(1 0 0 1 2146.75 1660)">Remote Buffer</text><path d="M2072.23 1478.5 2072.23 1512.88 2060.77 1512.88 2060.77 1478.5ZM2072.23 1524.33 2072.23 1558.71 2060.77 1558.71 2060.77 1524.33ZM2072.23 1570.17 2072.23 1604.54 2060.77 1604.54 2060.77 1570.17ZM2072.23 1616 2072.23 1650.38 2060.77 1650.38 2060.77 1616ZM2072.23 1661.83 2072.23 1696.21 2060.77 1696.21 2060.77 1661.83ZM2072.23 1707.67 2072.23 1742.04 2060.77 1742.04 2060.77 1707.67ZM2072.23 1753.5 2072.23 1774.15 2060.77 1774.15 2060.77 1753.5ZM2066.5 1774.15 2095.15 1751.23 2066.5 1808.52 2037.85 1751.23Z"/><path d="M5.72917-6.26504e-06 5.7292 34.375-5.72913 34.375-5.72917 6.26504e-06ZM5.72922 45.8333 5.72925 80.2083-5.72908 80.2083-5.72912 45.8333ZM5.72927 91.6667 5.7293 126.042-5.72903 126.042-5.72907 91.6667ZM5.72932 137.5 5.72935 171.875-5.72898 171.875-5.72902 137.5ZM5.72937 183.333 5.7294 217.708-5.72893 217.708-5.72897 183.333ZM5.72942 229.167 5.72945 263.542-5.72888 263.542-5.72892 229.167ZM5.72947 275 5.72949 295.649-5.72884 295.649-5.72887 275ZM0.000323302 295.649 28.6461 272.732 0.000360892 330.024-28.6455 272.732Z" transform="matrix(1 0 0 -1 2732.5 1801.52)"/><text font-family="Arial Narrow,Arial Narrow_MSFontService,sans-serif" font-weight="700" font-stretch="condensed" font-size="83" transform="matrix(1 0 0 1 2846.49 1628)">New </text><text font-family="Arial Narrow,Arial Narrow_MSFontService,sans-serif" font-weight="700" font-stretch="condensed" font-size="83" transform="matrix(1 0 0 1 2787.77 1727)">Policies</text></g></svg>